<?xml version="1.0" encoding="UTF-8" standalone="no"?>
<svg
   xmlns:dc="http://purl.org/dc/elements/1.1/"
   xmlns:cc="http://creativecommons.org/ns#"
   xmlns:rdf="http://www.w3.org/1999/02/22-rdf-syntax-ns#"
   xmlns:svg="http://www.w3.org/2000/svg"
   xmlns="http://www.w3.org/2000/svg"
   xmlns:sodipodi="http://sodipodi.sourceforge.net/DTD/sodipodi-0.dtd"
   xmlns:inkscape="http://www.inkscape.org/namespaces/inkscape"
   width="268.92188pt"
   height="57.599609pt"
   viewBox="0 0 268.92188 57.599609"
   version="1.2"
   id="svg293"
   sodipodi:docname="note_3.svg"
   inkscape:version="0.92.4 (5da689c313, 2019-01-14)">
  <metadata
     id="metadata299">
    <rdf:RDF>
      <cc:Work
         rdf:about="">
        <dc:format>image/svg+xml</dc:format>
        <dc:type
           rdf:resource="http://purl.org/dc/dcmitype/StillImage" />
        <dc:title></dc:title>
      </cc:Work>
    </rdf:RDF>
  </metadata>
  <defs
     id="defs297" />
  <sodipodi:namedview
     pagecolor="#ffffff"
     bordercolor="#666666"
     borderopacity="1"
     objecttolerance="10"
     gridtolerance="10"
     guidetolerance="10"
     inkscape:pageopacity="0"
     inkscape:pageshadow="2"
     inkscape:window-width="1920"
     inkscape:window-height="1017"
     id="namedview295"
     showgrid="false"
     inkscape:zoom="3.2121212"
     inkscape:cx="180.22872"
     inkscape:cy="35.63903"
     inkscape:window-x="1912"
     inkscape:window-y="-8"
     inkscape:window-maximized="1"
     inkscape:current-layer="surface13172" />
  <g
     id="surface13172"
     transform="translate(-77.21875,-215.82031)">
    <path
       style="fill:#000000;fill-opacity:1;fill-rule:nonzero;stroke:none"
       d="m 181.62109,240.48047 c 1.98047,-2.64063 4.98047,-2.64063 6.89844,0 l 0.53906,-0.35938 c -2.45703,-3.96093 -5.45703,-3.96093 -7.98047,0 l 0.54297,0.35938"
       id="path70"
       inkscape:connector-curvature="0" />
    <path
       style="fill:#000000;fill-opacity:1;fill-rule:nonzero;stroke:none"
       d="m 177.12109,255.71875 c 3.66016,3.90234 8.21875,3.90234 11.87891,0 l -0.42188,-0.41797 c -3.23828,2.69922 -7.79687,2.69922 -11.03906,0 l -0.41797,0.41797"
       id="path72"
       inkscape:connector-curvature="0" />
    <path
       style="fill:#000000;fill-opacity:1;fill-rule:nonzero;stroke:none"
       d="m 177.12109,248.57812 c 3.66016,3.90235 8.21875,3.90235 11.87891,0 l -0.42188,-0.41796 c -3.23828,2.69921 -7.79687,2.69921 -11.03906,0 l -0.41797,0.41796"
       id="path74"
       inkscape:connector-curvature="0" />
    <path
       style="fill:#000000;fill-opacity:1;fill-rule:nonzero;stroke:none;stroke-width:0.67496562"
       d="m 77.21875,229.80078 h 224.5006 v -0.66016 H 77.21875 Z m 0,0"
       id="path82"
       inkscape:connector-curvature="0" />
    <path
       style="fill:#000000;fill-opacity:1;fill-rule:nonzero;stroke:none;stroke-width:0.67479014"
       d="m 77.21875,234.71875 h 224.38384 v -0.59766 H 77.21875 Z m 0,0"
       id="path84"
       inkscape:connector-curvature="0" />
    <path
       style="fill:#000000;fill-opacity:1;fill-rule:nonzero;stroke:none;stroke-width:0.67492175"
       d="m 77.21875,239.69922 h 224.47141 v -0.66016 H 77.21875 Z m 0,0"
       id="path86"
       inkscape:connector-curvature="0" />
    <path
       style="fill:#000000;fill-opacity:1;fill-rule:nonzero;stroke:none;stroke-width:0.67553997"
       d="M 77.21875,249.60156 H 302.10156 V 249 H 77.21875 Z m 0,0"
       id="path88"
       inkscape:connector-curvature="0" />
    <path
       style="fill:#000000;fill-opacity:1;fill-rule:nonzero;stroke:none;stroke-width:0.67522883"
       d="m 77.21875,244.67969 h 224.67571 v -0.66016 H 77.21875 Z m 0,0"
       id="path90"
       inkscape:connector-curvature="0" />
    <path
       style="fill:#000000;fill-opacity:1;fill-rule:nonzero;stroke:none"
       d="m 301.14062,249.60156 h 0.96094 v -20.46094 h -0.96094 z m 0,0"
       id="path92"
       inkscape:connector-curvature="0" />
    <path
       style="fill:#000000;fill-opacity:1;fill-rule:nonzero;stroke:none"
       d="m 145.67969,258.53906 h 0.60156 v -33.11719 h -0.60156 z m 0,0"
       id="path106"
       inkscape:connector-curvature="0" />
    <path
       style="fill:#000000;fill-opacity:1;fill-rule:nonzero;stroke:none"
       d="m 143.69922,224.94141 h 10.5625 v -0.83985 h -10.5625 z m 0,0"
       id="path108"
       inkscape:connector-curvature="0" />
    <path
       style="fill:#000000;fill-opacity:1;fill-rule:nonzero;stroke:none"
       d="m 175.07812,253.32031 h 0.60157 v -28.62109 h -0.60157 z m 0,0"
       id="path110"
       inkscape:connector-curvature="0" />
    <path
       style="fill:#000000;fill-opacity:1;fill-rule:nonzero;stroke:none"
       d="m 167.10156,254.69922 h 10.5586 v -0.83985 h -10.5586 z m 0,0"
       id="path112"
       inkscape:connector-curvature="0" />
    <path
       style="fill:#000000;fill-opacity:1;fill-rule:nonzero;stroke:none"
       d="m 196.01953,253.32031 h 0.60156 v -28.80078 h -0.60156 z m 0,0"
       id="path114"
       inkscape:connector-curvature="0" />
    <path
       style="fill:#000000;fill-opacity:1;fill-rule:nonzero;stroke:none"
       d="m 188.03906,254.69922 h 10.5625 v -0.83985 h -10.5625 z m 0,0"
       id="path116"
       inkscape:connector-curvature="0" />
    <path
       style="fill:#000000;fill-opacity:1;fill-rule:nonzero;stroke:none"
       d="m 214.73828,253.32031 h 0.60156 v -28.80078 h -0.60156 z m 0,0"
       id="path118"
       inkscape:connector-curvature="0" />
    <path
       style="fill:#000000;fill-opacity:1;fill-rule:nonzero;stroke:none"
       d="m 206.76172,254.69922 h 10.55859 v -0.83985 h -10.55859 z m 0,0"
       id="path120"
       inkscape:connector-curvature="0" />
    <path
       style="fill:#000000;fill-opacity:1;fill-rule:nonzero;stroke:none"
       d="m 226.55859,255.78125 h 0.60157 v -31.26172 h -0.60157 z m 0,0"
       id="path122"
       inkscape:connector-curvature="0" />
    <path
       style="fill:#000000;fill-opacity:1;fill-rule:nonzero;stroke:none"
       d="m 218.57812,254.69922 h 10.5625 v -0.83985 h -10.5625 z m 0,0"
       id="path124"
       inkscape:connector-curvature="0" />
    <path
       style="fill:#000000;fill-opacity:1;fill-rule:nonzero;stroke:none"
       d="m 248.76172,258.30078 h 0.59765 v -31.32031 h -0.59765 z m 0,0"
       id="path126"
       inkscape:connector-curvature="0" />
    <path
       style="fill:#000000;fill-opacity:1;fill-rule:nonzero;stroke:none"
       d="m 241.92187,259.62109 h 9.41797 v -0.83984 h -9.41797 z m 0,0"
       id="path128"
       inkscape:connector-curvature="0" />
    <path
       style="fill:#000000;fill-opacity:1;fill-rule:nonzero;stroke:none"
       d="m 242.03906,254.69922 h 9.30078 v -0.83985 h -9.30078 z m 0,0"
       id="path130"
       inkscape:connector-curvature="0" />
    <path
       style="fill:#000000;fill-opacity:1;fill-rule:nonzero;stroke:none"
       d="m 268.32031,255.78125 h 0.60156 v -28.80078 h -0.60156 z m 0,0"
       id="path132"
       inkscape:connector-curvature="0" />
    <path
       style="fill:#000000;fill-opacity:1;fill-rule:nonzero;stroke:none"
       d="m 260.33984,254.69922 h 10.5586 v -0.83985 h -10.5586 z m 0,0"
       id="path134"
       inkscape:connector-curvature="0" />
    <path
       style="fill:#000000;fill-opacity:1;fill-rule:nonzero;stroke:none"
       d="m 294.83984,255.78125 h 0.60157 v -28.80078 h -0.60157 z m 0,0"
       id="path136"
       inkscape:connector-curvature="0" />
    <path
       style="fill:#000000;fill-opacity:1;fill-rule:nonzero;stroke:none"
       d="m 286.85937,254.69922 h 10.5625 v -0.83985 h -10.5625 z m 0,0"
       id="path138"
       inkscape:connector-curvature="0" />
    <path
       style="fill:#000000;fill-opacity:1;fill-rule:nonzero;stroke:none"
       d="m 160.80078,247.92187 c 0.30078,0 0.59766,-0.0625 0.89844,-0.0625 h 0.0625 l 0.29687,1.80079 c 0.0625,0.30078 0.0625,0.60156 0.0625,0.89843 0,2.10157 -1.5625,2.10157 -1.74218,2.10157 h -0.23829 c -0.42187,0 -0.78125,-0.0586 -1.08203,-0.23829 -0.0586,-0.0625 -0.11718,-0.12109 -0.11718,-0.12109 0,-0.0625 0.0586,-0.12109 0.11718,-0.12109 0.1211,-0.0586 0.24219,-0.0586 0.36328,-0.1211 0.47657,-0.11718 1.19922,-0.53906 1.19922,-1.32031 v -0.11719 c 0,-0.78125 -0.54297,-1.38281 -1.32031,-1.38281 -0.78125,0 -1.5,0.60156 -1.5625,1.38281 -0.0586,0 -0.0586,0.23828 -0.0586,0.48047 0,0.71875 0.30078,2.21875 2.46093,2.21875 0.0586,0 0.17969,-0.0586 0.30079,-0.0586 0.89843,0 2.33984,-0.72266 2.33984,-2.76172 0,-0.30078 -0.0625,-0.60156 -0.0625,-0.89844 0,0 -0.17969,-0.78125 -0.35938,-1.92187 1.44141,-0.53907 2.28125,-1.73828 2.28125,-3.17969 v -0.17969 c -0.12109,-1.67969 -1.32031,-2.9414 -3,-2.9414 h -0.12109 c -0.0586,0 -0.12109,0 -0.17969,0 -0.12109,-0.83985 -0.17968,-1.01954 -0.30078,-1.73829 1.74219,-1.62109 2.33985,-3.24218 2.33985,-5.51953 0,-0.78125 -0.17969,-1.62109 -0.53907,-2.46093 -0.48047,-1.14063 -0.96093,-1.26172 -0.96093,-1.26172 -1.25782,0.54297 -2.09766,2.52343 -2.09766,4.86328 0,0.41797 0,0.83984 0.0586,1.3164 l 0.17969,0.78125 c -1.91797,1.67969 -4.01953,3.53907 -4.01953,6.0625 0,2.87891 2.03906,4.5 4.80078,4.5 z m -3.60156,-3.36328 v -0.11718 c 0,-2.10157 1.5625,-3.24219 3.24219,-4.5 l 0.23828,1.55859 c -1.14063,0.30078 -2.10157,1.44141 -2.10157,2.57812 0,0.1836 0.0625,0.36329 0.1211,0.60157 0.17969,0.83984 0.78125,1.5 1.3789,1.67968 0.1211,0.0625 0.1836,0.0625 0.24219,0.0625 0.1211,0 0.17969,-0.0625 0.17969,-0.12109 0,-0.0625 -0.12109,-0.17969 -0.17969,-0.24219 -0.30078,-0.11718 -0.71875,-0.59765 -0.71875,-1.13672 v -0.12109 c 0,-0.90234 0.71875,-1.19922 1.37891,-1.32031 l 0.66015,3.66015 c -0.17968,0.0586 -0.48046,0.1211 -0.83984,0.1211 -1.37891,0 -3.53906,-0.42188 -3.60156,-2.70313 z m 3.24219,-8.75781 c 0,-1.32031 0.48046,-2.82031 1.5,-2.82031 0.41796,0 0.71875,0.30078 0.71875,1.01953 0,0.0586 0,0.17969 0,0.30078 -0.17969,1.01953 -0.71875,1.55859 -2.10157,2.57813 -0.0586,-0.30079 -0.11718,-0.59766 -0.11718,-0.59766 0,-0.17969 0,-0.30078 0,-0.48047 z m 3.17968,9.30078 v 0.17969 c 0,0.83984 -0.42187,1.32031 -1.32031,1.73828 -0.24219,-1.19922 -0.30078,-2.16016 -0.60156,-3.59766 1.08203,0 1.85937,0.59766 1.92187,1.67969"
       id="path148"
       inkscape:connector-curvature="0" />
    <path
       style="fill:#000000;fill-opacity:1;fill-rule:nonzero;stroke:none"
       d="m 145.98047,259.5 c 0.17969,0 0.48047,-0.12109 0.48047,-0.42188 0.35937,-1.91796 1.85937,-3.65625 2.8789,-5.21875 1.26172,-1.98046 2.46094,-4.3789 2.46094,-6.89843 0,-1.5625 -0.42187,-2.94141 -0.53906,-3.60157 -0.0625,-0.23828 -0.1836,-0.30078 -0.36328,-0.30078 -0.29688,0 -0.59766,0.36328 -0.41797,0.96094 0.30078,0.83984 0.41797,1.85938 0.41797,2.76172 0,1.14062 -0.47657,2.82031 -0.77735,3.53906 -0.78125,1.67969 -1.74218,3.30078 -4.4414,4.19922 v 4.67969 c 0,0.17969 0.17968,0.30078 0.30078,0.30078"
       id="path150"
       inkscape:connector-curvature="0" />
    <path
       style="fill:#000000;fill-opacity:1;fill-rule:nonzero;stroke:none"
       d="m 145.67969,225.42187 c 0,1.19922 0.96093,1.85938 2.16015,1.85938 1.98047,0 4.44141,-1.80078 4.44141,-3.72266 0,-1.13672 -0.90234,-1.85937 -2.22266,-1.85937 -2.39843,0 -4.3789,1.80078 -4.3789,3.72265"
       id="path152"
       inkscape:connector-curvature="0" />
    <path
       style="fill:#000000;fill-opacity:1;fill-rule:nonzero;stroke:none"
       d="m 145.67969,242.82031 c 0,1.14063 0.96093,1.85938 2.16015,1.85938 1.98047,0 4.44141,-1.85938 4.44141,-3.78125 0,-1.07813 -0.90234,-1.85938 -2.22266,-1.85938 -2.39843,0 -4.3789,1.85938 -4.3789,3.78125"
       id="path154"
       inkscape:connector-curvature="0" />
    <path
       style="fill:#000000;fill-opacity:1;fill-rule:nonzero;stroke:none"
       d="m 145.67969,235.37891 c 0,1.14062 0.96093,1.85937 2.16015,1.85937 1.98047,0 4.44141,-1.85937 4.44141,-3.77734 0,-1.08203 -0.90234,-1.85938 -2.22266,-1.85938 -2.39843,0 -4.3789,1.85938 -4.3789,3.77735"
       id="path156"
       inkscape:connector-curvature="0" />
    <path
       style="fill:#000000;fill-opacity:1;fill-rule:nonzero;stroke:none"
       d="m 179.03906,234.05859 c 0.30078,0.66016 0.48047,1.80078 0.48047,3 0,0.90235 -0.12109,1.86328 -0.48047,2.76172 -0.0586,0.1211 -0.0586,0.17969 -0.0586,0.30078 0,0.30078 0.17969,0.48047 0.30078,0.53907 0.11719,0.12109 0.48047,0 0.59766,-0.35938 0,0 0.48046,-1.92187 0.48046,-3.48047 0,-2.46094 -1.01953,-4.85937 -2.28125,-6.83984 -1.01953,-1.5586 -1.85937,-3.30078 -2.15625,-5.21875 -0.0625,-0.30078 -0.24218,-0.42188 -0.42187,-0.42188 -0.23828,0 -0.42188,0.0586 -0.42188,0.30078 v 4.73829 c 1.32032,0.24218 3.24219,3 3.96094,4.67968"
       id="path158"
       inkscape:connector-curvature="0" />
    <path
       style="fill:#000000;fill-opacity:1;fill-rule:nonzero;stroke:none"
       d="m 169.07812,242.82031 c 0,1.14063 0.96094,1.85938 2.16016,1.85938 1.98047,0 4.44141,-1.85938 4.44141,-3.78125 0,-1.07813 -0.89844,-1.85938 -2.16016,-1.85938 -2.46094,0 -4.44141,1.85938 -4.44141,3.78125"
       id="path160"
       inkscape:connector-curvature="0" />
    <path
       style="fill:#000000;fill-opacity:1;fill-rule:nonzero;stroke:none"
       d="m 169.07812,255.17969 c 0,1.19922 0.96094,1.85937 2.16016,1.85937 1.98047,0 4.44141,-1.80078 4.44141,-3.71875 0,-1.14062 -0.89844,-1.85937 -2.16016,-1.85937 -2.46094,0 -4.44141,1.80078 -4.44141,3.71875"
       id="path162"
       inkscape:connector-curvature="0" />
    <path
       style="fill:#000000;fill-opacity:1;fill-rule:nonzero;stroke:none"
       d="m 169.07812,247.73828 c 0,1.20313 0.96094,1.86328 2.16016,1.86328 1.98047,0 4.44141,-1.80078 4.44141,-3.72265 0,-1.14063 -0.89844,-1.85938 -2.16016,-1.85938 -2.46094,0 -4.44141,1.80078 -4.44141,3.71875"
       id="path164"
       inkscape:connector-curvature="0" />
    <path
       style="fill:#000000;fill-opacity:1;fill-rule:nonzero;stroke:none"
       d="m 190.01953,242.82031 c 0,1.14063 0.96094,1.85938 2.16016,1.85938 1.98047,0 4.4414,-1.85938 4.4414,-3.78125 0,-1.07813 -0.90234,-1.85938 -2.16015,-1.85938 -2.46094,0 -4.44141,1.85938 -4.44141,3.78125"
       id="path166"
       inkscape:connector-curvature="0" />
    <path
       style="fill:#000000;fill-opacity:1;fill-rule:nonzero;stroke:none"
       d="m 190.01953,255.17969 c 0,1.19922 0.96094,1.85937 2.16016,1.85937 1.98047,0 4.4414,-1.80078 4.4414,-3.71875 0,-1.14062 -0.90234,-1.85937 -2.16015,-1.85937 -2.46094,0 -4.44141,1.80078 -4.44141,3.71875"
       id="path168"
       inkscape:connector-curvature="0" />
    <path
       style="fill:#000000;fill-opacity:1;fill-rule:nonzero;stroke:none"
       d="m 190.01953,247.73828 c 0,1.20313 0.96094,1.86328 2.16016,1.86328 1.98047,0 4.4414,-1.80078 4.4414,-3.72265 0,-1.14063 -0.90234,-1.85938 -2.16015,-1.85938 -2.46094,0 -4.44141,1.80078 -4.44141,3.71875"
       id="path170"
       inkscape:connector-curvature="0" />
    <path
       style="fill:#000000;fill-opacity:1;fill-rule:nonzero;stroke:none"
       d="m 204.17969,245.57812 c 0,0.1211 0.0586,0.1836 0.12109,0.1836 0.0586,0 0.12109,0 0.17969,-0.0625 0.23828,-0.1211 1.3789,-0.59766 1.98047,-0.59766 0.17968,0 0.30078,0.0586 0.30078,0.23828 v 3 c 0,0.1211 0.11719,0.23828 0.23828,0.23828 h 0.30078 c 0.12109,0 0.23828,-0.11718 0.23828,-0.23828 v -10.07812 c 0,-0.0625 -0.11719,-0.1211 -0.17969,-0.1211 h -0.0586 L 207,238.26172 c -0.0586,0 -0.0586,0 -0.12109,0 0,0 -1.25782,0.47656 -1.80079,0.47656 -0.11718,0 -0.17968,-0.0586 -0.17968,-0.11719 v -3.35937 c 0,-0.1211 -0.11719,-0.24219 -0.23828,-0.24219 h -0.23829 c -0.18359,0 -0.24218,0.12109 -0.24218,0.24219 z m 2.39843,-5.27734 c 0.1211,0 0.1836,0 0.1836,0.0586 v 2.10157 c 0,0.35937 -1.14063,0.77734 -1.6211,0.77734 -0.12109,0 -0.24218,0 -0.24218,-0.11719 v -2.04297 c 0,-0.29687 1.20312,-0.77734 1.67968,-0.77734"
       id="path172"
       inkscape:connector-curvature="0" />
    <path
       style="fill:#000000;fill-opacity:1;fill-rule:nonzero;stroke:none"
       d="m 203.03906,258 c 0,0.12109 0.0625,0.17969 0.17969,0.17969 l 0.12109,-0.0586 c 0.30078,-0.12109 1.37891,-0.60156 1.98047,-0.60156 0.17969,0 0.35938,0.0586 0.35938,0.24219 v 2.9375 c 0,0.17969 0.0586,0.24219 0.24218,0.24219 h 0.23829 c 0.12109,0 0.23828,-0.0625 0.23828,-0.24219 v -10.01953 c 0,-0.1211 -0.0586,-0.17969 -0.17969,-0.17969 0,0 -0.0586,0 -0.0586,0.0586 l -0.30079,0.0625 c -0.0586,0 -0.0586,0.0586 -0.0586,0.0586 0,0 -1.32031,0.42187 -1.80078,0.42187 -0.12109,0 -0.23828,0 -0.23828,-0.0625 v -3.35937 c 0,-0.1211 -0.1211,-0.23828 -0.24219,-0.23828 h -0.23828 c -0.12109,0 -0.24219,0.11718 -0.24219,0.23828 z M 205.5,252.66016 c 0.12109,0 0.17969,0.0586 0.17969,0.12109 v 2.03906 c 0,0.35938 -1.14063,0.83985 -1.67969,0.83985 -0.12109,0 -0.23828,-0.0586 -0.23828,-0.1211 V 253.5 c 0,-0.30078 1.25781,-0.83984 1.73828,-0.83984"
       id="path174"
       inkscape:connector-curvature="0" />
    <path
       style="fill:#000000;fill-opacity:1;fill-rule:nonzero;stroke:none"
       d="m 198.48047,250.55859 c 0,0.1211 0.0586,0.17969 0.17969,0.17969 l 0.12109,-0.0586 c 0.29687,-0.1211 1.37891,-0.60157 1.98047,-0.60157 0.17969,0 0.35937,0.0625 0.35937,0.24219 v 2.94141 c 0,0.17969 0.0586,0.23828 0.23828,0.23828 h 0.24219 c 0.11719,0 0.23828,-0.0586 0.23828,-0.23828 v -10.02344 c 0,-0.11719 -0.0586,-0.17969 -0.17968,-0.17969 0,0 -0.0586,0 -0.0586,0.0625 l -0.30078,0.0586 c -0.0625,0 -0.0625,0.0586 -0.0625,0.0586 0,0 -1.31641,0.42188 -1.79687,0.42188 -0.1211,0 -0.24219,0 -0.24219,-0.0586 v -3.36328 c 0,-0.11719 -0.1211,-0.23828 -0.23828,-0.23828 h -0.24219 c -0.11719,0 -0.23828,0.12109 -0.23828,0.23828 z m 2.46094,-5.33984 c 0.11718,0 0.17968,0.0625 0.17968,0.12109 v 2.03907 c 0,0.35937 -1.14062,0.83984 -1.67968,0.83984 -0.1211,0 -0.24219,-0.0586 -0.24219,-0.11719 v -2.04297 c 0,-0.29687 1.26172,-0.83984 1.74219,-0.83984"
       id="path176"
       inkscape:connector-curvature="0" />
    <path
       style="fill:#000000;fill-opacity:1;fill-rule:nonzero;stroke:none"
       d="m 208.73828,242.82031 c 0,1.14063 0.96094,1.85938 2.16016,1.85938 1.98047,0 4.4414,-1.85938 4.4414,-3.78125 0,-1.07813 -0.89843,-1.85938 -2.16015,-1.85938 -2.46094,0 -4.44141,1.85938 -4.44141,3.78125"
       id="path178"
       inkscape:connector-curvature="0" />
    <path
       style="fill:#000000;fill-opacity:1;fill-rule:nonzero;stroke:none"
       d="m 208.73828,255.17969 c 0,1.19922 0.96094,1.85937 2.16016,1.85937 1.98047,0 4.4414,-1.80078 4.4414,-3.71875 0,-1.14062 -0.89843,-1.85937 -2.16015,-1.85937 -2.46094,0 -4.44141,1.80078 -4.44141,3.71875"
       id="path180"
       inkscape:connector-curvature="0" />
    <path
       style="fill:#000000;fill-opacity:1;fill-rule:nonzero;stroke:none"
       d="m 208.73828,247.73828 c 0,1.20313 0.96094,1.86328 2.16016,1.86328 1.98047,0 4.4414,-1.80078 4.4414,-3.72265 0,-1.14063 -0.89843,-1.85938 -2.16015,-1.85938 -2.46094,0 -4.44141,1.80078 -4.44141,3.71875"
       id="path182"
       inkscape:connector-curvature="0" />
    <path
       style="fill:#000000;fill-opacity:1;fill-rule:nonzero;stroke:none"
       d="m 220.55859,257.69922 c 0,1.14062 0.96094,1.85937 2.16016,1.85937 1.98047,0 4.44141,-1.85937 4.44141,-3.77734 0,-1.08203 -0.89844,-1.85938 -2.21875,-1.85938 -2.40235,0 -4.38282,1.85938 -4.38282,3.77735"
       id="path184"
       inkscape:connector-curvature="0" />
    <path
       style="fill:#000000;fill-opacity:1;fill-rule:nonzero;stroke:none"
       d="m 220.55859,250.26172 c 0,1.13672 0.96094,1.85937 2.16016,1.85937 1.98047,0 4.44141,-1.85937 4.44141,-3.78125 0,-1.07812 -0.89844,-1.85937 -2.21875,-1.85937 -2.40235,0 -4.38282,1.85937 -4.38282,3.78125"
       id="path186"
       inkscape:connector-curvature="0" />
    <path
       style="fill:#000000;fill-opacity:1;fill-rule:nonzero;stroke:none"
       d="m 220.55859,245.28125 c 0,1.14062 0.96094,1.85937 2.16016,1.85937 1.98047,0 4.44141,-1.85937 4.44141,-3.71875 0,-1.14062 -0.89844,-1.86328 -2.21875,-1.86328 -2.40235,0 -4.38282,1.80078 -4.38282,3.72266"
       id="path188"
       inkscape:connector-curvature="0" />
    <path
       style="fill:#000000;fill-opacity:1;fill-rule:nonzero;stroke:none"
       d="m 236.57812,248.33984 c 0,0.35938 0.0625,0.71875 0.1211,0.78125 0.12109,0.11719 0.48047,0.17969 0.78125,0.17969 0.30078,0 0.66015,-0.0625 0.78125,-0.17969 0.11719,-0.12109 0.11719,-0.42187 0.11719,-0.78125 l 0.0625,-0.0586 c 0.11718,-0.30078 0.35937,-0.83984 0.59765,-0.83984 0.30078,0 0.60156,0.66015 0.72266,0.89843 0,0.35938 0,0.71875 0.0586,0.78125 0.17969,0.11719 0.48047,0.17969 0.83985,0.17969 0.71875,0 0.89843,-0.17969 0.89843,-0.90234 0,-0.35938 -0.0586,-0.71875 -0.17968,-0.77735 -0.0586,-0.12109 -0.41797,-0.17968 -0.77735,-0.17968 h -0.17969 c -0.24218,-0.1211 -0.96093,-0.48047 -0.96093,-0.66016 0,-0.24219 0.66015,-0.54297 0.96093,-0.66016 0.0586,0 0.11719,0 0.23829,0 0.30078,0 0.60156,-0.0625 0.71875,-0.17968 0.12109,-0.1211 0.17968,-0.42188 0.17968,-0.72266 0,-0.83984 -0.0586,-0.95703 -0.89843,-0.95703 -0.35938,0 -0.71875,0.0586 -0.83985,0.17969 -0.0586,0.0586 -0.0586,0.41796 -0.0586,0.77734 -0.1211,0.17969 -0.42188,0.90234 -0.66016,0.90234 -0.30078,0 -0.60156,-0.66015 -0.72265,-0.90234 0,-0.35938 -0.0586,-0.71875 -0.11719,-0.77734 -0.1211,-0.1211 -0.42188,-0.17969 -0.72266,-0.17969 -0.35937,0 -0.71875,0.0586 -0.83984,0.17969 -0.0586,0 -0.1211,0.35937 -0.1211,0.71875 0,0.35937 0.0625,0.71875 0.1211,0.78125 0.12109,0.11718 0.48047,0.17968 0.83984,0.17968 0.0625,0 0.1211,0 0.17969,0 0.24219,0.11719 0.96094,0.53907 0.96094,0.66016 0,0.23828 -0.66016,0.59766 -0.89844,0.66016 h -0.24219 c -0.35937,0 -0.71875,0.0586 -0.83984,0.17968 -0.0586,0.0586 -0.1211,0.35938 -0.1211,0.71875"
       id="path190"
       inkscape:connector-curvature="0" />
    <path
       style="fill:#000000;fill-opacity:1;fill-rule:nonzero;stroke:none"
       d="m 236.69922,258.71875 c 0.12109,0 0.48047,-0.17969 0.53906,-0.23828 h 0.0625 c 0.12109,0 0.23828,0.17969 0.23828,0.35937 v 1.98047 c 0,0.17969 -0.0586,0.35938 -0.17969,0.41797 -0.12109,0.0625 -0.53906,0.24219 -0.53906,0.24219 -0.17969,0.0586 -0.24219,0.17969 -0.24219,0.30078 v 1.4375 c 0,0.12109 0.0625,0.17969 0.1211,0.17969 0.0625,0 0.0625,0 0.12109,0 0,0 0.23828,-0.11719 0.41797,-0.17969 0.0625,-0.0586 0.0625,-0.0586 0.0625,-0.0586 0.17969,0 0.23828,0.23828 0.23828,0.35937 v 2.46094 c 0,0.12109 0.1211,0.17969 0.30078,0.17969 0.17969,0 0.30078,-0.0586 0.30078,-0.17969 v -2.82031 c 0,-0.23829 0.1211,-0.35938 0.23829,-0.42188 l 1.19921,-0.47656 0.0625,-0.0625 c 0.17969,0 0.30079,0.24219 0.30079,0.35937 v 2.51953 c 0,0.1211 0.11718,0.24219 0.23828,0.24219 0.24218,0 0.35937,-0.12109 0.35937,-0.24219 v -2.8164 c 0,-0.1836 0.0625,-0.42188 0.17969,-0.48047 0.17969,-0.0625 0.60156,-0.24219 0.60156,-0.24219 0.1211,-0.0586 0.23828,-0.17969 0.23828,-0.30078 v -1.4375 c 0,-0.12109 -0.0586,-0.17969 -0.17968,-0.17969 0,0 -0.0586,0 -0.0586,0.0586 l -0.53906,0.17968 c -0.12109,0 -0.24219,-0.12109 -0.24219,-0.35937 v -1.85938 c 0,-0.12109 0.0625,-0.53906 0.24219,-0.60156 l 0.53906,-0.17969 c 0.1211,-0.0586 0.23828,-0.23828 0.23828,-0.35937 v -1.37891 c 0,-0.12109 -0.0586,-0.17968 -0.17968,-0.17968 h -0.0586 c 0,0 -0.42187,0.17968 -0.53906,0.17968 -0.12109,0 -0.24219,-0.0625 -0.24219,-0.24218 v -2.45704 c 0,-0.12109 -0.11719,-0.18359 -0.30078,-0.18359 -0.17969,0 -0.29687,0.0625 -0.29687,0.18359 v 2.63672 c -0.0625,0.17969 -0.1211,0.42188 -0.30079,0.54297 -0.24218,0.17969 -0.90234,0.41797 -1.26171,0.53906 -0.17969,0 -0.23829,-0.24218 -0.23829,-0.42187 v -2.39844 c 0,-0.12109 -0.12109,-0.24219 -0.24218,-0.24219 -0.23828,0 -0.35938,0.1211 -0.35938,0.24219 v 2.69922 c 0,0.30078 -0.11719,0.48047 -0.23828,0.53906 -0.12109,0.0625 -0.48047,0.24219 -0.48047,0.24219 -0.17969,0 -0.24219,0.17969 -0.24219,0.30078 v 1.4375 c 0,0.1211 0.0625,0.17969 0.1211,0.17969 z m 1.3789,1.08203 c 0,-0.60156 0.0625,-1.32031 0.0625,-1.44141 0.0586,-0.35937 0.96094,-0.78125 1.5,-0.78125 0.1211,0 0.23829,0.0625 0.30079,0.1211 0,0.12109 0.0586,0.60156 0.0586,1.14062 0,0.53907 -0.0586,1.08203 -0.0586,1.26172 -0.1211,0.41797 -1.08204,0.83985 -1.5625,0.83985 -0.11719,0 -0.17969,-0.0625 -0.23829,-0.1211 0,-0.0586 -0.0625,-0.53906 -0.0625,-1.01953"
       id="path192"
       inkscape:connector-curvature="0" />
    <path
       style="fill:#000000;fill-opacity:1;fill-rule:nonzero;stroke:none"
       d="m 231.12109,251.28125 c 0.11719,0 0.48047,-0.17969 0.53907,-0.24219 h 0.0586 c 0.12109,0 0.24219,0.17969 0.24219,0.35938 v 1.98047 c 0,0.17968 -0.0625,0.35937 -0.17969,0.42187 -0.12109,0.0586 -0.54297,0.23828 -0.54297,0.23828 -0.17969,0.0625 -0.23828,0.17969 -0.23828,0.30078 v 1.44141 c 0,0.11719 0.0586,0.17969 0.12109,0.17969 0.0586,0 0.0586,0 0.11719,0 0,0 0.24219,-0.1211 0.42188,-0.17969 0.0586,-0.0625 0.0586,-0.0625 0.0586,-0.0625 0.17969,0 0.24219,0.24219 0.24219,0.35937 v 2.46094 c 0,0.1211 0.11718,0.17969 0.30078,0.17969 0.17969,0 0.29687,-0.0586 0.29687,-0.17969 v -2.82031 c 0,-0.23828 0.1211,-0.35938 0.24219,-0.41797 l 1.1992,-0.48047 0.0586,-0.0586 c 0.17969,0 0.30078,0.23828 0.30078,0.35937 v 2.51953 c 0,0.1211 0.1211,0.23829 0.24219,0.23829 0.23828,0 0.35938,-0.11719 0.35938,-0.23829 v -2.82031 c 0,-0.17969 0.0586,-0.42187 0.17968,-0.48047 0.17969,-0.0586 0.59766,-0.23828 0.59766,-0.23828 0.12109,-0.0625 0.24219,-0.17969 0.24219,-0.30078 v -1.44141 c 0,-0.12109 -0.0586,-0.17968 -0.17969,-0.17968 0,0 -0.0625,0 -0.0625,0.0586 l -0.53906,0.18359 c -0.1211,0 -0.23828,-0.12109 -0.23828,-0.36328 v -1.85937 c 0,-0.1211 0.0586,-0.53906 0.23828,-0.59766 l 0.53906,-0.17969 c 0.12109,-0.0625 0.24219,-0.24218 0.24219,-0.36328 v -1.3789 c 0,-0.1211 -0.0586,-0.17969 -0.17969,-0.17969 h -0.0625 c 0,0 -0.41797,0.17969 -0.53906,0.17969 -0.1211,0 -0.23828,-0.0586 -0.23828,-0.23828 v -2.46094 c 0,-0.1211 -0.1211,-0.17969 -0.30078,-0.17969 -0.17969,0 -0.30079,0.0586 -0.30079,0.17969 v 2.64062 c -0.0586,0.17969 -0.12109,0.41797 -0.30078,0.53907 -0.23828,0.17968 -0.89843,0.41796 -1.25781,0.53906 -0.17969,0 -0.24219,-0.23828 -0.24219,-0.41797 v -2.40234 c 0,-0.11719 -0.11718,-0.23829 -0.23828,-0.23829 -0.24219,0 -0.35937,0.1211 -0.35937,0.23829 v 2.69921 c 0,0.30079 -0.1211,0.48047 -0.24219,0.54297 -0.11719,0.0586 -0.48047,0.23828 -0.48047,0.23828 -0.17969,0 -0.23828,0.17969 -0.23828,0.30079 v 1.4414 c 0,0.11719 0.0586,0.17969 0.12109,0.17969 z m 1.37891,1.07812 c 0,-0.59765 0.0586,-1.32031 0.0586,-1.4375 0.0625,-0.36328 0.96094,-0.78125 1.5,-0.78125 0.1211,0 0.24219,0.0586 0.30078,0.1211 0,0.11719 0.0625,0.59765 0.0625,1.13672 0,0.54297 -0.0625,1.08203 -0.0625,1.26172 -0.12109,0.41796 -1.07812,0.83984 -1.55859,0.83984 -0.12109,0 -0.17969,-0.0586 -0.24219,-0.12109 0,-0.0586 -0.0586,-0.53907 -0.0586,-1.01954"
       id="path194"
       inkscape:connector-curvature="0" />
    <path
       style="fill:#000000;fill-opacity:1;fill-rule:nonzero;stroke:none"
       d="m 242.76172,247.73828 c 0,1.20313 0.95703,1.86328 2.16015,1.86328 1.97657,0 4.4375,-1.80078 4.4375,-3.72265 0,-1.14063 -0.89843,-1.85938 -2.21875,-1.85938 -2.40234,0 -4.3789,1.80078 -4.3789,3.71875"
       id="path196"
       inkscape:connector-curvature="0" />
    <path
       style="fill:#000000;fill-opacity:1;fill-rule:nonzero;stroke:none"
       d="m 242.76172,260.16016 c 0,1.14062 0.95703,1.85937 2.16015,1.85937 1.97657,0 4.4375,-1.85937 4.4375,-3.71875 0,-1.14062 -0.89843,-1.85937 -2.21875,-1.85937 -2.40234,0 -4.3789,1.79687 -4.3789,3.71875"
       id="path198"
       inkscape:connector-curvature="0" />
    <path
       style="fill:#000000;fill-opacity:1;fill-rule:nonzero;stroke:none"
       d="m 242.76172,252.71875 c 0,1.14062 0.95703,1.85937 2.16015,1.85937 1.97657,0 4.4375,-1.85937 4.4375,-3.71875 0,-1.14062 -0.89843,-1.85937 -2.21875,-1.85937 -2.40234,0 -4.3789,1.80078 -4.3789,3.71875"
       id="path200"
       inkscape:connector-curvature="0" />
    <path
       style="fill:#000000;fill-opacity:1;fill-rule:nonzero;stroke:none"
       d="m 257.76172,248.03906 c 0,0.1211 0.0586,0.17969 0.11719,0.17969 0.0625,0 0.12109,0 0.17968,0 0.24219,-0.11719 1.38282,-0.59766 1.98047,-0.59766 0.17969,0 0.30078,0.0586 0.30078,0.17969 v 3 c 0,0.12109 0.1211,0.23828 0.23828,0.23828 h 0.30079 c 0.12109,0 0.24218,-0.11719 0.24218,-0.23828 v -10.01953 c 0,-0.12109 -0.12109,-0.17969 -0.17968,-0.17969 h -0.0625 l -0.30079,0.11719 c -0.0586,0 -0.0586,0 -0.11718,0 0,0 -1.26172,0.48047 -1.80078,0.48047 -0.1211,0 -0.17969,0 -0.17969,-0.1211 v -3.29687 c 0,-0.17969 -0.1211,-0.24219 -0.24219,-0.24219 H 258 c -0.17969,0 -0.23828,0.0625 -0.23828,0.24219 z m 2.39844,-5.27734 c 0.12109,0 0.17968,0 0.17968,0.11719 v 2.04296 c 0,0.35938 -1.14062,0.83985 -1.62109,0.83985 -0.11719,0 -0.23828,-0.0625 -0.23828,-0.1211 v -2.10156 c 0,-0.23828 1.19922,-0.77734 1.67969,-0.77734"
       id="path202"
       inkscape:connector-curvature="0" />
    <path
       style="fill:#000000;fill-opacity:1;fill-rule:nonzero;stroke:none"
       d="m 253.19922,253.01953 c 0,0.12109 0.0625,0.17969 0.17969,0.17969 0,0 0.12109,0 0.12109,-0.0586 0.30078,-0.12109 1.37891,-0.60156 1.98047,-0.60156 0.17969,0 0.35937,0.0625 0.35937,0.24219 v 3 c 0,0.11719 0.0586,0.23828 0.23828,0.23828 h 0.24219 c 0.1211,0 0.23828,-0.12109 0.23828,-0.23828 v -10.08203 c 0,-0.0586 -0.0586,-0.1211 -0.17968,-0.1211 h -0.0586 l -0.30078,0.1211 c -0.0586,0 -0.0586,0 -0.0586,0 0,0 -1.32032,0.48047 -1.80078,0.48047 -0.1211,0 -0.23829,-0.0586 -0.23829,-0.1211 v -3.35937 c 0,-0.1211 -0.12109,-0.23828 -0.24218,-0.23828 h -0.23828 c -0.1211,0 -0.24219,0.11718 -0.24219,0.23828 z m 2.46094,-5.28125 c 0.12109,0 0.17968,0 0.17968,0.0625 v 2.09766 c 0,0.36328 -1.14062,0.78125 -1.67968,0.78125 -0.1211,0 -0.23829,0 -0.23829,-0.1211 v -2.03906 c 0,-0.30078 1.25782,-0.78125 1.73829,-0.78125"
       id="path204"
       inkscape:connector-curvature="0" />
    <path
       style="fill:#000000;fill-opacity:1;fill-rule:nonzero;stroke:none"
       d="m 262.32031,250.26172 c 0,1.13672 0.96094,1.85937 2.16016,1.85937 1.98047,0 4.4414,-1.85937 4.4414,-3.78125 0,-1.07812 -0.90234,-1.85937 -2.16015,-1.85937 -2.46094,0 -4.44141,1.85937 -4.44141,3.78125"
       id="path206"
       inkscape:connector-curvature="0" />
    <path
       style="fill:#000000;fill-opacity:1;fill-rule:nonzero;stroke:none"
       d="m 262.32031,245.28125 c 0,1.14062 0.96094,1.85937 2.16016,1.85937 1.98047,0 4.4414,-1.85937 4.4414,-3.71875 0,-1.14062 -0.90234,-1.86328 -2.16015,-1.86328 -2.46094,0 -4.44141,1.80078 -4.44141,3.72266"
       id="path208"
       inkscape:connector-curvature="0" />
    <path
       style="fill:#000000;fill-opacity:1;fill-rule:nonzero;stroke:none"
       d="m 262.32031,257.69922 c 0,1.14062 0.96094,1.85937 2.16016,1.85937 1.98047,0 4.4414,-1.85937 4.4414,-3.77734 0,-1.08203 -0.90234,-1.85938 -2.16015,-1.85938 -2.46094,0 -4.44141,1.85938 -4.44141,3.77735"
       id="path210"
       inkscape:connector-curvature="0" />
    <path
       style="fill:#000000;fill-opacity:1;fill-rule:nonzero;stroke:none"
       d="m 282.78125,243.83984 c 0.0586,0 0.48047,-0.17968 0.53906,-0.23828 0,0 0,0 0.0586,0 0.12109,0 0.24218,0.17969 0.24218,0.35938 v 1.98047 c 0,0.17968 -0.12109,0.35937 -0.24218,0.41796 -0.11719,0.0625 -0.53907,0.24219 -0.53907,0.24219 -0.12109,0.0586 -0.23828,0.17969 -0.23828,0.29688 v 1.4414 c 0,0.1211 0.0586,0.17969 0.17969,0.17969 h 0.0586 c 0,0 0.30078,-0.12109 0.48047,-0.17969 0,-0.0586 0.0586,-0.0586 0.0586,-0.0586 0.12109,0 0.24218,0.23828 0.24218,0.35937 v 2.46094 c 0,0.11719 0.11719,0.17969 0.23828,0.17969 0.24219,0 0.35938,-0.0625 0.35938,-0.17969 v -2.82031 c 0,-0.24219 0.12109,-0.35938 0.17969,-0.42188 l 1.26172,-0.48046 0.0586,-0.0586 c 0.17969,0 0.24219,0.23828 0.24219,0.35938 v 2.51953 c 0,0.12109 0.11718,0.24219 0.30078,0.24219 0.17969,0 0.29687,-0.1211 0.29687,-0.24219 v -2.82031 c 0,-0.17969 0.1211,-0.41797 0.24219,-0.48047 0.12109,-0.0586 0.53906,-0.23828 0.53906,-0.23828 0.17969,-0.0586 0.23828,-0.17969 0.23828,-0.30079 v -1.4375 c 0,-0.12109 -0.0586,-0.18359 -0.11718,-0.18359 -0.0625,0 -0.0625,0 -0.1211,0.0625 l -0.48047,0.17969 c -0.12109,0 -0.30078,-0.1211 -0.30078,-0.35938 v -1.85937 c 0,-0.1211 0.1211,-0.54297 0.30078,-0.60156 l 0.48047,-0.17969 c 0.17969,-0.0586 0.23828,-0.24219 0.23828,-0.35938 v -1.38281 c 0,-0.11719 -0.0586,-0.17969 -0.11718,-0.17969 -0.0625,0 -0.0625,0 -0.1211,0 0,0 -0.35937,0.17969 -0.48047,0.17969 -0.12109,0 -0.30078,-0.0586 -0.30078,-0.23828 v -2.46094 c 0,-0.11719 -0.11718,-0.17969 -0.23828,-0.17969 -0.24219,0 -0.35937,0.0625 -0.35937,0.17969 v 2.64063 c 0,0.17968 -0.0625,0.42187 -0.24219,0.53906 -0.23828,0.17969 -0.89844,0.42187 -1.25781,0.54297 -0.17969,0 -0.24219,-0.24219 -0.24219,-0.42188 v -2.39843 c 0,-0.1211 -0.11719,-0.24219 -0.29688,-0.24219 -0.18359,0 -0.30078,0.12109 -0.30078,0.24219 v 2.69921 c 0,0.30079 -0.12109,0.48047 -0.24218,0.53907 -0.11719,0.0586 -0.53907,0.24218 -0.53907,0.24218 -0.12109,0 -0.23828,0.17969 -0.23828,0.29688 v 1.44141 c 0,0.12109 0.0586,0.17968 0.17969,0.17968 z m 1.37891,1.08203 c 0,-0.60156 0,-1.32031 0.0586,-1.4414 0.0625,-0.35938 0.96094,-0.78125 1.44141,-0.78125 0.17968,0 0.30078,0.0625 0.30078,0.12109 0.0586,0.1211 0.11718,0.60156 0.11718,1.14063 0,0.53906 -0.0586,1.07812 -0.11718,1.25781 -0.1211,0.42187 -1.01953,0.83984 -1.5,0.83984 -0.1211,0 -0.24219,-0.0586 -0.24219,-0.11718 -0.0586,-0.0625 -0.0586,-0.54297 -0.0586,-1.01954"
       id="path212"
       inkscape:connector-curvature="0" />
    <path
       style="fill:#000000;fill-opacity:1;fill-rule:nonzero;stroke:none"
       d="m 278.10156,256.19922 c 0.0586,0 0.47656,-0.17969 0.53906,-0.17969 0,0 0,-0.0586 0.0586,-0.0586 0.12109,0 0.24219,0.23828 0.24219,0.35937 v 1.98047 c 0,0.23828 -0.1211,0.41797 -0.24219,0.48047 -0.1211,0.0586 -0.53906,0.23828 -0.53906,0.23828 -0.1211,0 -0.23829,0.17969 -0.23829,0.30078 v 1.44141 c 0,0.11719 0.0586,0.17969 0.17969,0.17969 l 0.0586,-0.0625 c 0,0 0.30078,-0.11719 0.48046,-0.17969 h 0.0586 c 0.12109,0 0.24219,0.24219 0.24219,0.30078 v 2.46094 c 0,0.11718 0.11718,0.23828 0.23828,0.23828 0.24218,0 0.35937,-0.1211 0.35937,-0.23828 v -2.76172 c 0,-0.23828 0.1211,-0.41797 0.17969,-0.41797 l 1.26172,-0.54297 h 0.0586 c 0.17969,0 0.24219,0.24219 0.24219,0.36328 v 2.51953 c 0,0.11719 0.11719,0.17969 0.29687,0.17969 0.1836,0 0.30079,-0.0625 0.30079,-0.17969 v -2.88281 c 0,-0.11719 0.12109,-0.35937 0.24218,-0.41797 0.11719,-0.0586 0.53907,-0.24219 0.53907,-0.24219 0.17968,-0.0586 0.23828,-0.23828 0.23828,-0.35937 v -1.37891 c 0,-0.12109 -0.0586,-0.17968 -0.11719,-0.17968 -0.0625,0 -0.0625,0 -0.12109,0 l -0.48047,0.23828 c -0.1211,0 -0.30078,-0.11719 -0.30078,-0.35938 v -1.85937 c 0,-0.17969 0.12109,-0.53907 0.30078,-0.60157 l 0.48047,-0.17968 c 0.17968,-0.0586 0.23828,-0.23828 0.23828,-0.35938 v -1.4375 c 0,-0.0625 -0.0586,-0.12109 -0.11719,-0.12109 -0.0625,0 -0.0625,0 -0.12109,0 0,0 -0.35938,0.17969 -0.48047,0.17969 -0.1211,0 -0.30078,-0.1211 -0.30078,-0.23829 v -2.46093 c 0,-0.1211 -0.11719,-0.24219 -0.23829,-0.24219 -0.24218,0 -0.35937,0.12109 -0.35937,0.24219 v 2.57812 c 0,0.24219 -0.0625,0.48047 -0.24219,0.60156 -0.23828,0.1211 -0.89844,0.41797 -1.25781,0.48047 -0.17969,0 -0.24219,-0.24218 -0.24219,-0.35937 v -2.40235 c 0,-0.12109 -0.11719,-0.23828 -0.30078,-0.23828 -0.17969,0 -0.29687,0.11719 -0.29687,0.23828 v 2.69922 c 0,0.24219 -0.1211,0.48047 -0.24219,0.54297 -0.1211,0.0586 -0.53906,0.17969 -0.53906,0.17969 -0.1211,0.0586 -0.23829,0.23828 -0.23829,0.35937 v 1.37891 c 0,0.12109 0.0586,0.17969 0.17969,0.17969 z m 1.37891,1.14062 c 0,-0.60156 0,-1.32031 0.0586,-1.5 0.0625,-0.30078 0.96094,-0.71875 1.44141,-0.71875 0.17969,0 0.30078,0 0.30078,0.11719 0.0586,0.0625 0.11719,0.60156 0.11719,1.14063 0,0.54296 -0.0586,1.08203 -0.11719,1.26171 -0.12109,0.41797 -1.01953,0.78125 -1.5,0.78125 -0.12109,0 -0.24219,0 -0.24219,-0.0625 -0.0586,-0.12109 -0.0586,-0.53906 -0.0586,-1.01953"
       id="path214"
       inkscape:connector-curvature="0" />
    <path
       style="fill:#000000;fill-opacity:1;fill-rule:nonzero;stroke:none"
       d="m 272.94141,248.76172 c 0.0586,0 0.48046,-0.1836 0.53906,-0.1836 0,0 0,-0.0586 0.0586,-0.0586 0.1211,0 0.24219,0.24219 0.24219,0.35938 v 1.98046 c 0,0.24219 -0.12109,0.42188 -0.24219,0.48047 -0.11719,0.0586 -0.53906,0.23828 -0.53906,0.23828 -0.12109,0 -0.23828,0.1836 -0.23828,0.30079 v 1.4414 c 0,0.1211 0.0586,0.17969 0.17969,0.17969 L 273,253.44141 c 0,0 0.30078,-0.1211 0.48047,-0.17969 h 0.0586 c 0.1211,0 0.24219,0.23828 0.24219,0.29687 v 2.46094 c 0,0.12109 0.11719,0.24219 0.23828,0.24219 0.24219,0 0.35938,-0.1211 0.35938,-0.24219 v -2.75781 c 0,-0.24219 0.12109,-0.42188 0.17968,-0.42188 l 1.26172,-0.53906 h 0.0586 c 0.17968,0 0.24218,0.23828 0.24218,0.35938 v 2.51953 c 0,0.12109 0.11719,0.17968 0.30078,0.17968 0.17969,0 0.29688,-0.0586 0.29688,-0.17968 v -2.87891 c 0,-0.12109 0.12109,-0.35937 0.24219,-0.42187 0.11718,-0.0586 0.53906,-0.23829 0.53906,-0.23829 0.17969,-0.0625 0.23828,-0.24218 0.23828,-0.35937 v -1.38281 c 0,-0.11719 -0.0586,-0.17969 -0.11719,-0.17969 -0.0625,0 -0.0625,0 -0.12109,0 l -0.48047,0.24219 c -0.12109,0 -0.30078,-0.1211 -0.30078,-0.35938 v -1.86328 c 0,-0.17969 0.12109,-0.53906 0.30078,-0.59766 L 277.5,246.96094 c 0.17969,-0.0625 0.23828,-0.24219 0.23828,-0.35938 v -1.4414 c 0,-0.0586 -0.0586,-0.1211 -0.11719,-0.1211 -0.0625,0 -0.0625,0 -0.12109,0 0,0 -0.35938,0.17969 -0.48047,0.17969 -0.12109,0 -0.30078,-0.11719 -0.30078,-0.23828 v -2.46094 c 0,-0.12109 -0.11719,-0.23828 -0.23828,-0.23828 -0.24219,0 -0.35938,0.11719 -0.35938,0.23828 v 2.58203 c 0,0.23828 -0.0625,0.47656 -0.24218,0.59766 -0.23829,0.12109 -0.89844,0.42187 -1.25782,0.48047 -0.17968,0 -0.24218,-0.23828 -0.24218,-0.35938 v -2.39844 c 0,-0.12109 -0.11719,-0.24218 -0.30079,-0.24218 -0.17968,0 -0.29687,0.12109 -0.29687,0.24218 v 2.69922 c 0,0.23828 -0.12109,0.48047 -0.24219,0.53907 -0.11719,0.0586 -0.53906,0.17968 -0.53906,0.17968 -0.12109,0.0586 -0.23828,0.23828 -0.23828,0.35938 v 1.3789 c 0,0.1211 0.0586,0.1836 0.17969,0.1836 z m 1.3789,1.13672 c 0,-0.59766 0,-1.32032 0.0586,-1.5 0.0625,-0.29688 0.96093,-0.71875 1.4414,-0.71875 0.17969,0 0.30078,0 0.30078,0.12109 0.0586,0.0586 0.11719,0.59766 0.11719,1.14063 0,0.53906 -0.0586,1.07812 -0.11719,1.25781 -0.12109,0.42187 -1.01953,0.78125 -1.5,0.78125 -0.12109,0 -0.24218,0 -0.24218,-0.0586 -0.0586,-0.12109 -0.0586,-0.54296 -0.0586,-1.02343"
       id="path216"
       inkscape:connector-curvature="0" />
    <path
       style="fill:#000000;fill-opacity:1;fill-rule:nonzero;stroke:none"
       d="m 288.83984,257.69922 c 0,1.14062 0.96094,1.85937 2.16016,1.85937 1.98047,0 4.44141,-1.85937 4.44141,-3.77734 0,-1.08203 -0.90235,-1.85938 -2.22266,-1.85938 -2.39844,0 -4.37891,1.85938 -4.37891,3.77735"
       id="path218"
       inkscape:connector-curvature="0" />
    <path
       style="fill:#000000;fill-opacity:1;fill-rule:nonzero;stroke:none"
       d="m 288.83984,245.28125 c 0,1.14062 0.96094,1.85937 2.16016,1.85937 1.98047,0 4.44141,-1.85937 4.44141,-3.71875 0,-1.14062 -0.90235,-1.86328 -2.22266,-1.86328 -2.39844,0 -4.37891,1.80078 -4.37891,3.72266"
       id="path220"
       inkscape:connector-curvature="0" />
    <path
       style="fill:#000000;fill-opacity:1;fill-rule:nonzero;stroke:none"
       d="m 288.83984,250.26172 c 0,1.13672 0.96094,1.85937 2.16016,1.85937 1.98047,0 4.44141,-1.85937 4.44141,-3.78125 0,-1.07812 -0.90235,-1.85937 -2.22266,-1.85937 -2.39844,0 -4.37891,1.85937 -4.37891,3.78125"
       id="path222"
       inkscape:connector-curvature="0" />
    <path
       style="fill:#000000;fill-opacity:1;fill-rule:nonzero;stroke:none"
       d="m 79.980469,247.14062 c 0.121094,0 0.238281,-0.0625 0.359375,-0.12109 4.921875,-2.39844 10.082031,-5.94141 10.082031,-12.05859 0,-3.48047 -2.101562,-5.76172 -5.582031,-5.76172 -3.480469,0 -5.039063,2.51953 -5.039063,4.4414 0,1.6211 0.839844,3 2.460938,3 1.257812,0 2.160156,-0.90234 2.160156,-2.16015 0,-1.26172 -0.960937,-2.03906 -1.921875,-2.03906 -0.539062,0 -0.78125,0.11718 -1.019531,0.11718 -0.242188,0 -0.300781,-0.17968 -0.300781,-0.35937 0,-0.77735 1.199218,-2.27735 3.242187,-2.27735 2.097656,0 3,2.09766 3,5.21875 0,5.57813 -2.761719,8.69922 -7.382812,11.39844 -0.179688,0.0625 -0.300782,0.17969 -0.300782,0.35938 0,0.12109 0.0625,0.24218 0.242188,0.24218 z m 12.417969,-14.10156 c 0.601562,0 1.082031,-0.48047 1.082031,-1.14062 0,-0.59766 -0.480469,-1.07813 -1.082031,-1.07813 -0.597657,0 -1.078125,0.48047 -1.078125,1.07813 0,0.66015 0.480468,1.14062 1.078125,1.14062 z m 0,4.98047 c 0.660156,0 1.082031,-0.48047 1.082031,-1.07812 0,-0.66016 -0.421875,-1.08204 -1.082031,-1.08204 -0.597657,0 -1.078125,0.42188 -1.078125,1.08204 0,0.59765 0.480468,1.07812 1.078125,1.07812"
       id="path258"
       inkscape:connector-curvature="0" />
    <path
       style="fill:#000000;fill-opacity:1;fill-rule:nonzero;stroke:none"
       d="m 98.640625,233.87891 c 0.05859,0 0.417969,-0.17969 0.480469,-0.17969 0.05859,0 0.05859,-0.0586 0.05859,-0.0586 0.179687,0 0.300781,0.23829 0.300781,0.35938 v 1.98047 c 0,0.23828 -0.121094,0.41797 -0.242188,0.48047 -0.117187,0.0586 -0.539062,0.23828 -0.539062,0.23828 -0.121094,0 -0.238281,0.17969 -0.238281,0.30078 v 1.44141 c 0,0.11718 0.05859,0.17968 0.179687,0.17968 l 0.05859,-0.0625 c 0,0 0.300781,-0.11718 0.480469,-0.17968 0,0 0,0 0.05859,0 0.121094,0 0.242188,0.24218 0.242188,0.30078 v 2.46093 c 0,0.1211 0.121094,0.23829 0.238281,0.23829 0.179688,0 0.359381,-0.11719 0.359381,-0.23829 v -2.76171 c 0,-0.23829 0.0625,-0.41797 0.18359,-0.41797 l 1.19922,-0.53907 c 0.0586,0 0.0586,0 0.11719,0 0.12109,0 0.24218,0.23829 0.24218,0.35938 v 2.51953 c 0,0.12109 0.1211,0.17969 0.23828,0.17969 0.24219,0 0.36329,-0.0586 0.36329,-0.17969 v -2.87891 c 0,-0.12109 0.0586,-0.36328 0.23828,-0.42187 0.12109,-0.0586 0.53906,-0.23828 0.53906,-0.23828 0.12109,-0.0625 0.24219,-0.24219 0.24219,-0.36328 v -1.37891 c 0,-0.12109 -0.0625,-0.17969 -0.1211,-0.17969 -0.0586,0 -0.0586,0 -0.12109,0 l -0.53906,0.23828 c -0.1211,0 -0.23828,-0.11718 -0.23828,-0.35937 v -1.85938 c 0,-0.17968 0.11718,-0.53906 0.23828,-0.59765 l 0.53906,-0.1836 c 0.12109,-0.0586 0.24219,-0.23828 0.24219,-0.35937 v -1.4375 c 0,-0.0625 -0.0625,-0.12109 -0.1211,-0.12109 -0.0586,0 -0.0586,0 -0.12109,0 0,0 -0.41797,0.17968 -0.48047,0.17968 -0.17969,0 -0.29687,-0.12109 -0.29687,-0.23828 v -2.46094 c 0,-0.12109 -0.1211,-0.24218 -0.30079,-0.24218 -0.17968,0 -0.30078,0.12109 -0.30078,0.24218 v 2.57813 c 0,0.24219 -0.0586,0.48047 -0.24218,0.60156 -0.23829,0.1211 -0.95704,0.41797 -1.25782,0.48047 -0.17968,0 -0.24218,-0.24219 -0.24218,-0.35937 v -2.40235 c 0,-0.11719 -0.179693,-0.23828 -0.296881,-0.23828 -0.179687,0 -0.300781,0.12109 -0.300781,0.23828 v 2.69922 c 0,0.24219 -0.121094,0.48047 -0.242188,0.54297 -0.117187,0.0586 -0.539062,0.17969 -0.539062,0.17969 -0.121094,0.0586 -0.238281,0.23828 -0.238281,0.35937 v 1.37891 c 0,0.12109 0.05859,0.17969 0.179687,0.17969 z m 1.378905,1.14062 c 0,-0.59766 0,-1.32031 0.0586,-1.5 0,-0.30078 0.96093,-0.71875 1.4414,-0.71875 0.1211,0 0.24219,0 0.30078,0.12109 0.0586,0.0586 0.0586,0.59766 0.0586,1.13672 0,0.54297 0,1.08203 -0.0586,1.26172 -0.12109,0.41797 -1.08203,0.78125 -1.5,0.78125 -0.12109,0 -0.24218,0 -0.24218,-0.0625 -0.0586,-0.11719 -0.0586,-0.53906 -0.0586,-1.01953"
       id="path260"
       inkscape:connector-curvature="0" />
    <path
       style="fill:#000000;fill-opacity:1;fill-rule:nonzero;stroke:none"
       d="m 104.82031,241.32031 c 0.1211,0 0.48047,-0.17969 0.53907,-0.17969 l 0.0625,-0.0625 c 0.11718,0 0.23828,0.24219 0.23828,0.36329 v 1.98046 c 0,0.23829 -0.0586,0.41797 -0.17969,0.47657 -0.12109,0.0625 -0.53906,0.24218 -0.53906,0.24218 -0.17969,0 -0.24219,0.17969 -0.24219,0.30079 v 1.4375 c 0,0.12109 0.0625,0.17968 0.12109,0.17968 0.0586,0 0.0586,-0.0586 0.1211,-0.0586 0,0 0.23828,-0.12109 0.41797,-0.17969 0.0625,0 0.0625,0 0.0625,0 0.17968,0 0.23828,0.23828 0.23828,0.30078 v 2.45703 c 0,0.1211 0.12109,0.24219 0.30078,0.24219 0.17969,0 0.30078,-0.12109 0.30078,-0.24219 v -2.75781 c 0,-0.24219 0.11719,-0.42187 0.23828,-0.42187 l 1.19922,-0.53907 h 0.0625 c 0.17969,0 0.29687,0.24219 0.29687,0.35938 v 2.51953 c 0,0.12109 0.1211,0.18359 0.24219,0.18359 0.23828,0 0.35938,-0.0625 0.35938,-0.18359 v -2.87891 c 0,-0.12109 0.0586,-0.35937 0.17968,-0.41796 0.17969,-0.0625 0.60157,-0.24219 0.60157,-0.24219 0.11718,-0.0586 0.23828,-0.23828 0.23828,-0.35938 v -1.3789 c 0,-0.1211 -0.0586,-0.17969 -0.17969,-0.17969 h -0.0586 l -0.54297,0.23828 c -0.11719,0 -0.23828,-0.12109 -0.23828,-0.35937 v -1.85938 c 0,-0.17969 0.0586,-0.53906 0.23828,-0.60156 l 0.54297,-0.17969 c 0.11718,-0.0586 0.23828,-0.23828 0.23828,-0.35937 v -1.44141 c 0,-0.0586 -0.0586,-0.11719 -0.17969,-0.11719 h -0.0586 c 0,0 -0.42188,0.17969 -0.54297,0.17969 -0.11719,0 -0.23828,-0.12109 -0.23828,-0.24219 v -2.46094 c 0,-0.11718 -0.1211,-0.23828 -0.30078,-0.23828 -0.17969,0 -0.30079,0.1211 -0.30079,0.23828 v 2.58204 c -0.0586,0.23828 -0.11718,0.48046 -0.29687,0.60156 -0.24219,0.11719 -0.90234,0.41797 -1.26172,0.47656 -0.17969,0 -0.23828,-0.23828 -0.23828,-0.35937 v -2.39844 c 0,-0.1211 -0.12109,-0.24219 -0.24219,-0.24219 -0.23828,0 -0.35937,0.12109 -0.35937,0.24219 v 2.69922 c 0,0.24218 -0.1211,0.48047 -0.23828,0.53906 -0.1211,0.0625 -0.48047,0.17969 -0.48047,0.17969 -0.17969,0.0625 -0.24219,0.24218 -0.24219,0.36328 v 1.3789 c 0,0.1211 0.0625,0.17969 0.12109,0.17969 z m 1.37891,1.14063 c 0,-0.60157 0.0625,-1.32032 0.0625,-1.5 0.0586,-0.30078 0.95703,-0.72266 1.5,-0.72266 0.11719,0 0.23828,0 0.29687,0.12109 0,0.0625 0.0625,0.60157 0.0625,1.14063 0,0.53906 -0.0625,1.07812 -0.0625,1.26172 -0.11718,0.41797 -1.07812,0.77734 -1.55859,0.77734 -0.12109,0 -0.17969,0 -0.23828,-0.0586 0,-0.1211 -0.0625,-0.53906 -0.0625,-1.01953"
       id="path262"
       inkscape:connector-curvature="0" />
    <path
       style="fill:#000000;fill-opacity:1;fill-rule:nonzero;stroke:none"
       d="m 111.05859,231.42187 c 0.0625,0 0.48047,-0.18359 0.54297,-0.24218 0,0 0,0 0.0586,0 0.12109,0 0.23828,0.17968 0.23828,0.35937 v 1.98047 c 0,0.24219 -0.11719,0.42188 -0.23828,0.48047 -0.1211,0 -0.53907,0.17969 -0.53907,0.17969 -0.12109,0.0586 -0.24218,0.24218 -0.24218,0.35937 v 1.38281 c 0,0.11719 0.0625,0.17969 0.17968,0.17969 h 0.0625 c 0,0 0.30079,-0.12109 0.48047,-0.17969 h 0.0586 c 0.12109,0 0.23828,0.17969 0.23828,0.29688 v 2.46094 c 0,0.12109 0.12109,0.24218 0.24219,0.24218 0.23828,0 0.35937,-0.12109 0.35937,-0.24218 v -2.75782 c 0,-0.30078 0.12109,-0.42187 0.17969,-0.48046 l 1.26172,-0.48047 H 114 c 0.17969,0 0.23828,0.23828 0.23828,0.35937 v 2.46094 c 0,0.11719 0.1211,0.23828 0.30078,0.23828 0.17969,0 0.30078,-0.12109 0.30078,-0.23828 v -2.82031 c 0,-0.17969 0.1211,-0.42188 0.23829,-0.48047 0.12109,-0.0586 0.54296,-0.17969 0.54296,-0.17969 0.17969,-0.0625 0.23829,-0.24219 0.23829,-0.35937 V 232.5 c 0,-0.0586 -0.0586,-0.12109 -0.1211,-0.12109 -0.0586,0 -0.0586,0 -0.11719,0 l -0.48046,0.17968 c -0.1211,0 -0.30079,-0.11718 -0.30079,-0.35937 v -1.85938 c 0,-0.12109 0.1211,-0.48047 0.30079,-0.53906 l 0.48046,-0.24219 c 0.17969,-0.0586 0.23829,-0.17968 0.23829,-0.29687 v -1.44141 c 0,-0.12109 -0.0586,-0.17969 -0.1211,-0.17969 -0.0586,0 -0.0586,0 -0.11719,0.0586 0,0 -0.35937,0.12109 -0.48046,0.17969 -0.1211,0 -0.30079,-0.11719 -0.30079,-0.30079 v -2.39843 c 0,-0.1211 -0.12109,-0.23828 -0.23828,-0.23828 -0.24218,0 -0.36328,0.11718 -0.36328,0.23828 v 2.58203 c 0,0.17969 -0.0586,0.47656 -0.23828,0.59765 -0.23828,0.1211 -0.89844,0.42188 -1.26172,0.48047 -0.17969,0 -0.23828,-0.23828 -0.23828,-0.41797 v -2.40234 c 0,-0.12109 -0.12109,-0.17969 -0.30078,-0.17969 -0.17969,0 -0.30078,0.0586 -0.30078,0.17969 v 2.69922 c 0,0.30078 -0.11719,0.48047 -0.23828,0.54297 -0.1211,0.0586 -0.53907,0.23828 -0.53907,0.23828 -0.12109,0.0586 -0.24218,0.17969 -0.24218,0.30078 v 1.4375 c 0,0.12109 0.0625,0.18359 0.17968,0.18359 z m 1.38282,1.13672 c 0,-0.66015 0,-1.32031 0.0586,-1.5 0.0586,-0.35937 0.96094,-0.77734 1.44141,-0.77734 0.17968,0 0.29687,0.0586 0.29687,0.11719 0.0625,0.12109 0.1211,0.60156 0.1211,1.14062 0,0.53906 -0.0586,1.14063 -0.1211,1.32031 -0.11719,0.35938 -1.01953,0.78125 -1.5,0.78125 -0.11719,0 -0.23828,-0.0625 -0.23828,-0.12109 -0.0586,-0.0586 -0.0586,-0.48047 -0.0586,-0.96094"
       id="path264"
       inkscape:connector-curvature="0" />
    <path
       style="fill:#000000;fill-opacity:1;fill-rule:nonzero;stroke:none"
       d="m 117.30078,238.85937 c 0.0586,0 0.41797,-0.17968 0.48047,-0.23828 0.0586,0 0.0586,0 0.0586,0 0.17969,0 0.30079,0.17969 0.30079,0.35938 v 1.98047 c 0,0.23828 -0.1211,0.41797 -0.24219,0.48047 -0.11719,0 -0.53906,0.17968 -0.53906,0.17968 -0.1211,0.0586 -0.23829,0.23828 -0.23829,0.35938 v 1.3789 c 0,0.1211 0.0586,0.17969 0.17969,0.17969 h 0.0586 c 0,0 0.30078,-0.11719 0.48046,-0.17969 0,0 0,0 0.0586,0 0.12109,0 0.24219,0.17969 0.24219,0.30079 v 2.46093 c 0,0.11719 0.12109,0.23828 0.23828,0.23828 0.17968,0 0.35937,-0.12109 0.35937,-0.23828 v -2.76172 c 0,-0.30078 0.0625,-0.41796 0.1836,-0.48046 l 1.19921,-0.48047 c 0.0586,0 0.0586,0 0.11719,0 0.1211,0 0.24219,0.24218 0.24219,0.36328 v 2.45703 c 0,0.12109 0.12109,0.24219 0.23828,0.24219 0.24219,0 0.35938,-0.1211 0.35938,-0.24219 v -2.82031 c 0,-0.17969 0.0625,-0.41797 0.24218,-0.47657 0.1211,-0.0625 0.53907,-0.18359 0.53907,-0.18359 0.12109,-0.0586 0.24218,-0.23828 0.24218,-0.35937 v -1.4375 c 0,-0.0625 -0.0625,-0.1211 -0.12109,-0.1211 -0.0586,0 -0.0586,0 -0.12109,0 L 121.32031,240 c -0.12109,0 -0.24218,-0.12109 -0.24218,-0.35938 v -1.85937 c 0,-0.12109 0.12109,-0.48047 0.24218,-0.54297 L 121.85938,237 c 0.12109,-0.0586 0.24218,-0.17969 0.24218,-0.30078 v -1.4375 c 0,-0.1211 -0.0625,-0.1836 -0.12109,-0.1836 -0.0586,0 -0.0586,0 -0.12109,0.0625 0,0 -0.41797,0.1211 -0.48047,0.17969 -0.17969,0 -0.30078,-0.12109 -0.30078,-0.30078 v -2.39844 c 0,-0.12109 -0.11719,-0.24218 -0.29688,-0.24218 -0.17969,0 -0.30078,0.12109 -0.30078,0.24218 v 2.57813 c 0,0.17969 -0.0586,0.48047 -0.24219,0.60156 -0.23828,0.12109 -0.95703,0.41797 -1.25781,0.48047 -0.17969,0 -0.24219,-0.24219 -0.24219,-0.42188 v -2.39843 c 0,-0.1211 -0.17969,-0.17969 -0.29687,-0.17969 -0.17969,0 -0.30078,0.0586 -0.30078,0.17969 v 2.69922 c 0,0.30078 -0.1211,0.48046 -0.24219,0.53906 -0.11719,0.0625 -0.53906,0.24219 -0.53906,0.24219 -0.1211,0.0586 -0.23829,0.17968 -0.23829,0.29687 v 1.44141 c 0,0.12109 0.0586,0.17968 0.17969,0.17968 z M 118.67969,240 c 0,-0.66016 0,-1.32031 0.0586,-1.5 0,-0.35938 0.96094,-0.78125 1.44141,-0.78125 0.12109,0 0.24219,0.0625 0.30078,0.12109 0.0586,0.1211 0.0586,0.60157 0.0586,1.14063 0,0.53906 0,1.14062 -0.0586,1.32031 -0.12109,0.35938 -1.08203,0.77734 -1.5,0.77734 -0.12109,0 -0.24219,-0.0586 -0.24219,-0.11718 -0.0586,-0.0625 -0.0586,-0.48047 -0.0586,-0.96094"
       id="path266"
       inkscape:connector-curvature="0" />
    <path
       style="fill:#000000;fill-opacity:1;fill-rule:nonzero;stroke:none"
       d="m 123.48047,246.30078 c 0.0586,0 0.48047,-0.17969 0.53906,-0.24219 0,0 0,0 0.0586,0 0.12109,0 0.24218,0.17969 0.24218,0.36328 v 1.97657 c 0,0.24218 -0.12109,0.42187 -0.24218,0.48047 -0.11719,0 -0.53907,0.17968 -0.53907,0.17968 -0.11718,0.0625 -0.23828,0.24219 -0.23828,0.36328 v 1.37891 c 0,0.12109 0.0586,0.17969 0.17969,0.17969 h 0.0586 c 0,0 0.30078,-0.1211 0.48047,-0.17969 h 0.0586 c 0.12109,0 0.24218,0.17969 0.24218,0.30078 v 2.45703 c 0,0.1211 0.1211,0.24219 0.23828,0.24219 0.24219,0 0.36329,-0.12109 0.36329,-0.24219 v -2.75781 c 0,-0.30078 0.11718,-0.42187 0.17968,-0.48047 l 1.25782,-0.48047 h 0.0625 c 0.17968,0 0.23828,0.23828 0.23828,0.35938 v 2.46094 c 0,0.12109 0.12109,0.23828 0.30078,0.23828 0.17969,0 0.30078,-0.11719 0.30078,-0.23828 v -2.82032 c 0,-0.17968 0.11719,-0.41797 0.23828,-0.48047 0.12109,-0.0586 0.53906,-0.17968 0.53906,-0.17968 0.17969,-0.0586 0.24219,-0.23828 0.24219,-0.35938 v -1.4414 c 0,-0.0586 -0.0625,-0.11719 -0.12109,-0.11719 -0.0586,0 -0.0586,0 -0.1211,0 l -0.48047,0.17969 c -0.11718,0 -0.29687,-0.1211 -0.29687,-0.36329 v -1.85937 c 0,-0.11719 0.11719,-0.48047 0.29687,-0.53906 l 0.48047,-0.23828 c 0.17969,-0.0625 0.24219,-0.17969 0.24219,-0.30079 v -1.4414 c 0,-0.1211 -0.0625,-0.17969 -0.12109,-0.17969 -0.0586,0 -0.0586,0 -0.1211,0.0586 0,0 -0.35937,0.1211 -0.48047,0.1836 -0.11718,0 -0.29687,-0.1211 -0.29687,-0.30078 v -2.40235 c 0,-0.11718 -0.12109,-0.23828 -0.24219,-0.23828 -0.23828,0 -0.35937,0.1211 -0.35937,0.23828 v 2.58203 c 0,0.17969 -0.0586,0.48047 -0.23828,0.59766 -0.24219,0.12109 -0.90235,0.42188 -1.26172,0.48047 -0.17969,0 -0.23828,-0.23828 -0.23828,-0.41797 v -2.40234 c 0,-0.11719 -0.1211,-0.17969 -0.30079,-0.17969 -0.17968,0 -0.30078,0.0625 -0.30078,0.17969 v 2.70312 c 0,0.29688 -0.12109,0.47656 -0.24218,0.53906 -0.11719,0.0586 -0.53907,0.23829 -0.53907,0.23829 -0.11718,0.0625 -0.23828,0.17968 -0.23828,0.30078 v 1.4414 c 0,0.11719 0.0586,0.17969 0.17969,0.17969 z m 1.37891,1.14063 c 0,-0.66016 0,-1.32032 0.0625,-1.5 0.0586,-0.36329 0.95703,-0.78125 1.4375,-0.78125 0.17968,0 0.30078,0.0586 0.30078,0.12109 0.0586,0.11719 0.12109,0.59766 0.12109,1.14062 0,0.53907 -0.0625,1.13672 -0.12109,1.31641 -0.1211,0.36328 -1.01953,0.78125 -1.5,0.78125 -0.1211,0 -0.23828,-0.0586 -0.23828,-0.12109 -0.0625,-0.0586 -0.0625,-0.47657 -0.0625,-0.95703"
       id="path268"
       inkscape:connector-curvature="0" />
    <path
       style="fill:#000000;fill-opacity:1;fill-rule:nonzero;stroke:none"
       d="m 129.71875,236.39844 c 0.0625,0 0.42187,-0.17969 0.48047,-0.23828 0.0625,0 0.0625,0 0.0625,0 0.17969,0 0.29687,0.17968 0.29687,0.35937 V 238.5 c 0,0.17969 -0.11718,0.35937 -0.23828,0.42187 -0.12109,0.0586 -0.53906,0.23829 -0.53906,0.23829 -0.12109,0.0586 -0.24219,0.17968 -0.24219,0.30078 v 1.4375 c 0,0.12109 0.0625,0.17968 0.17969,0.17968 h 0.0625 c 0,0 0.29687,-0.11718 0.48047,-0.17968 0,-0.0586 0,-0.0586 0.0586,-0.0586 0.1211,0 0.23828,0.23828 0.23828,0.35938 v 2.46094 c 0,0.12109 0.1211,0.17968 0.24219,0.17968 0.17969,0 0.35938,-0.0586 0.35938,-0.17968 v -2.82032 c 0,-0.23828 0.0586,-0.35937 0.17968,-0.41797 l 1.19922,-0.48046 c 0.0625,0 0.0625,-0.0625 0.1211,-0.0625 0.12109,0 0.23828,0.24218 0.23828,0.35937 v 2.52344 c 0,0.11719 0.12109,0.23828 0.24218,0.23828 0.23829,0 0.35938,-0.12109 0.35938,-0.23828 v -2.82031 c 0,-0.17969 0.0586,-0.42188 0.23828,-0.48047 0.12109,-0.0625 0.54297,-0.24219 0.54297,-0.24219 0.11719,-0.0586 0.23828,-0.17969 0.23828,-0.29688 v -1.4414 c 0,-0.1211 -0.0586,-0.17969 -0.12109,-0.17969 -0.0586,0 -0.0586,0 -0.11719,0.0586 l -0.54297,0.17969 c -0.11719,0 -0.23828,-0.11719 -0.23828,-0.35937 v -1.85938 c 0,-0.12109 0.12109,-0.53906 0.23828,-0.60156 l 0.54297,-0.17969 c 0.11719,-0.0586 0.23828,-0.23828 0.23828,-0.35937 v -1.37891 c 0,-0.12109 -0.0586,-0.17969 -0.12109,-0.17969 -0.0586,0 -0.0586,0 -0.11719,0 0,0 -0.42188,0.17969 -0.48047,0.17969 -0.17969,0 -0.30078,-0.0625 -0.30078,-0.24219 v -2.45703 c 0,-0.12109 -0.12109,-0.17969 -0.30078,-0.17969 -0.17969,0 -0.30078,0.0586 -0.30078,0.17969 v 2.63672 c 0,0.18359 -0.0586,0.42188 -0.23828,0.54297 -0.23829,0.17969 -0.96094,0.41797 -1.26172,0.53906 -0.17969,0 -0.23828,-0.24219 -0.23828,-0.42187 V 231 c 0,-0.12109 -0.17969,-0.23828 -0.30079,-0.23828 -0.17968,0 -0.30078,0.11719 -0.30078,0.23828 v 2.69922 c 0,0.30078 -0.11718,0.48047 -0.23828,0.53906 -0.12109,0.0625 -0.53906,0.24219 -0.53906,0.24219 -0.12109,0 -0.24219,0.17969 -0.24219,0.30078 v 1.4375 c 0,0.12109 0.0625,0.17969 0.17969,0.17969 z m 1.38281,1.08203 c 0,-0.60156 0,-1.32031 0.0586,-1.44141 0,-0.35937 0.96093,-0.77734 1.4414,-0.77734 0.11719,0 0.23828,0.0586 0.29688,0.11719 0.0625,0.12109 0.0625,0.60156 0.0625,1.14062 0,0.53906 0,1.08203 -0.0625,1.26172 -0.11719,0.41797 -1.07813,0.83984 -1.5,0.83984 -0.11719,0 -0.23828,-0.0625 -0.23828,-0.12109 -0.0586,-0.0586 -0.0586,-0.53906 -0.0586,-1.01953"
       id="path270"
       inkscape:connector-curvature="0" />
    <path
       style="fill:#000000;fill-opacity:1;fill-rule:nonzero;stroke:none"
       d="m 210.60156,223.5 c 1.67969,0 3.0586,-1.01953 3.0586,-2.57813 0,-0.54296 -0.23829,-1.02343 -0.78125,-1.26171 -0.11719,-0.0586 -0.17969,-0.0586 -0.17969,-0.17969 0,-0.0586 0.0625,-0.1211 0.24219,-0.17969 0.83984,-0.35937 1.5,-0.96094 1.5,-1.80078 0,-1.01953 -1.01954,-1.67969 -2.22266,-1.67969 -1.25781,0 -2.27734,0.66016 -2.33984,1.73828 0,0.54297 0.30078,0.90235 0.78125,0.90235 0.48046,0 0.89843,-0.42188 0.89843,-0.96094 0,-0.23828 -0.11718,-0.35938 -0.17968,-0.48047 -0.17969,-0.12109 -0.23829,-0.23828 -0.23829,-0.30078 0,-0.11719 0.23829,-0.23828 0.66016,-0.23828 0.77734,0 1.01953,0.48047 1.01953,0.89844 0,1.08203 -0.66015,1.80078 -1.85937,1.80078 h -0.17969 c -0.30078,0 -0.42188,0.12109 -0.42188,0.30078 0,0.17969 0.1211,0.30078 0.42188,0.30078 h 0.17969 c 0.71875,0 1.07812,0.48047 1.07812,1.07812 0,0.90235 -0.59765,2.10157 -1.80078,2.10157 -0.41797,0 -0.71875,-0.1211 -0.71875,-0.35938 0,-0.12109 0.0586,-0.12109 0.24219,-0.24219 0.23828,-0.0586 0.47656,-0.30078 0.47656,-0.83984 0,-0.48047 -0.29687,-0.71875 -0.71875,-0.71875 -0.59766,0 -1.01953,0.48047 -1.01953,1.14063 0,0.83984 0.66016,1.55859 2.10156,1.55859"
       id="path272"
       inkscape:connector-curvature="0" />
    <path
       style="fill:#000000;fill-opacity:1;fill-rule:nonzero;stroke:none"
       d="m 271.07812,225.96094 c 1.6836,0 3.1211,-1.01953 3.1211,-2.58203 0,-0.48047 -0.30078,-0.95704 -0.77735,-1.25782 -0.18359,-0.0625 -0.24218,-0.0625 -0.24218,-0.17968 0,-0.0625 0.0586,-0.0625 0.24218,-0.17969 0.83985,-0.30078 1.5,-0.96094 1.5,-1.74219 0,-1.07812 -0.96093,-1.67969 -2.22265,-1.67969 -1.25781,0 -2.27735,0.66016 -2.33985,1.73828 0,0.48047 0.30079,0.84375 0.78125,0.84375 0.48047,0 0.89844,-0.42187 0.89844,-0.96093 0,-0.17969 -0.0586,-0.35938 -0.17969,-0.48047 -0.12109,-0.1211 -0.23828,-0.17969 -0.23828,-0.24219 0,-0.17969 0.23828,-0.29687 0.66016,-0.29687 0.77734,0 1.01953,0.48046 1.01953,0.89843 0,1.08203 -0.66016,1.85938 -1.80078,1.85938 h -0.23828 c -0.24219,0 -0.42188,0.12109 -0.42188,0.30078 0,0.17969 0.17969,0.30078 0.42188,0.30078 h 0.17969 c 0.77734,0 1.13671,0.41797 1.13671,1.07813 0,0.83984 -0.65625,2.10156 -1.85937,2.10156 -0.41797,0 -0.71875,-0.17969 -0.71875,-0.35938 0,-0.12109 0.12109,-0.17968 0.23828,-0.24218 0.24219,-0.11719 0.54297,-0.35938 0.54297,-0.89844 0,-0.48047 -0.35938,-0.71875 -0.78125,-0.71875 -0.53906,0 -0.96094,0.53906 -0.96094,1.19922 0,0.77734 0.60156,1.5 2.03906,1.5"
       id="path274"
       inkscape:connector-curvature="0" />
    <path
       style="fill:#000000;fill-opacity:1;fill-rule:nonzero;stroke:none"
       d="m 137.94141,222.89844 c 0.53906,-4.4375 8.03906,-7.01953 11.21875,-3.89844 l -0.42188,0.42187 c -2.21875,-1.98046 -9.71875,0.59766 -10.19922,3.53907 l -0.59765,-0.0625"
       id="path278"
       inkscape:connector-curvature="0" />
    <path
       style="fill:#000000;fill-opacity:1;fill-rule:nonzero;stroke:none"
       d="m 172.62109,259.32031 c 17.09766,16.98047 155.9375,16.98047 173.03907,0 l 0.48046,0.41797 c -17.58203,18.24219 -156.42187,18.24219 -173.9414,0 l 0.42187,-0.41797"
       id="path280"
       inkscape:connector-curvature="0" />
    <path
       style="fill:#000000;fill-opacity:1;fill-rule:nonzero;stroke:none"
       d="m 196.01953,226.98047 h 31.14063 v -2.46094 h -31.14063 z m 0,0"
       id="path282"
       inkscape:connector-curvature="0" />
    <path
       style="fill:#000000;fill-opacity:1;fill-rule:nonzero;stroke:none"
       d="m 248.76172,229.44141 h 46.67969 v -2.46094 h -46.67969 z m 0,0"
       id="path284"
       inkscape:connector-curvature="0" />
  </g>
</svg>
