<?xml version="1.0" encoding="UTF-8" standalone="no"?>
<svg
   xmlns:dc="http://purl.org/dc/elements/1.1/"
   xmlns:cc="http://creativecommons.org/ns#"
   xmlns:rdf="http://www.w3.org/1999/02/22-rdf-syntax-ns#"
   xmlns:svg="http://www.w3.org/2000/svg"
   xmlns="http://www.w3.org/2000/svg"
   xmlns:sodipodi="http://sodipodi.sourceforge.net/DTD/sodipodi-0.dtd"
   xmlns:inkscape="http://www.inkscape.org/namespaces/inkscape"
   width="91.976562pt"
   height="29.761719pt"
   viewBox="0 0 91.976562 29.761719"
   version="1.2"
   id="svg69"
   sodipodi:docname="rhythm_note_1.svg"
   inkscape:version="0.92.4 (5da689c313, 2019-01-14)">
  <metadata
     id="metadata75">
    <rdf:RDF>
      <cc:Work
         rdf:about="">
        <dc:format>image/svg+xml</dc:format>
        <dc:type
           rdf:resource="http://purl.org/dc/dcmitype/StillImage" />
        <dc:title></dc:title>
      </cc:Work>
    </rdf:RDF>
  </metadata>
  <defs
     id="defs73" />
  <sodipodi:namedview
     pagecolor="#ffffff"
     bordercolor="#666666"
     borderopacity="1"
     objecttolerance="10"
     gridtolerance="10"
     guidetolerance="10"
     inkscape:pageopacity="0"
     inkscape:pageshadow="2"
     inkscape:window-width="1536"
     inkscape:window-height="801"
     id="namedview71"
     showgrid="false"
     inkscape:zoom="6.4242424"
     inkscape:cx="69.245927"
     inkscape:cy="-1.525488"
     inkscape:window-x="-8"
     inkscape:window-y="693"
     inkscape:window-maximized="1"
     inkscape:current-layer="svg69" />
  <g
     id="surface5383"
     transform="translate(-149.10156,-140.21875)">
    <path
       style="fill:#000000;fill-opacity:1;fill-rule:nonzero;stroke:none"
       d="m 155.03906,164.03906 h 0.60156 v -16.19922 h -0.60156 z m 0,0"
       id="path16"
       inkscape:connector-curvature="0" />
    <path
       style="fill:#000000;fill-opacity:1;fill-rule:nonzero;stroke:none"
       d="m 183.12109,164.03906 h 0.59766 v -15.17969 h -0.59766 z m 0,0"
       id="path18"
       inkscape:connector-curvature="0" />
    <path
       style="fill:#000000;fill-opacity:1;fill-rule:nonzero;stroke:none"
       d="m 194.57812,164.03906 h 0.60157 v -15.17969 h -0.60157 z m 0,0"
       id="path20"
       inkscape:connector-curvature="0" />
    <path
       style="fill:#000000;fill-opacity:1;fill-rule:nonzero;stroke:none"
       d="m 206.03906,164.03906 h 0.60156 v -15.17969 h -0.60156 z m 0,0"
       id="path22"
       inkscape:connector-curvature="0" />
    <path
       style="fill:#000000;fill-opacity:1;fill-rule:nonzero;stroke:none"
       d="m 217.55859,164.03906 h 0.54297 v -15.17969 h -0.54297 z m 0,0"
       id="path24"
       inkscape:connector-curvature="0" />
    <path
       style="fill:#000000;fill-opacity:1;fill-rule:nonzero;stroke:none"
       d="m 229.01953,164.03906 h 0.60156 v -15.17969 h -0.60156 z m 0,0"
       id="path26"
       inkscape:connector-curvature="0" />
    <path
       style="fill:#000000;fill-opacity:1;fill-rule:nonzero;stroke:none"
       d="m 240.48047,164.03906 h 0.59765 v -15.17969 h -0.59765 z m 0,0"
       id="path28"
       inkscape:connector-curvature="0" />
    <path
       style="fill:#000000;fill-opacity:1;fill-rule:nonzero;stroke:none"
       d="m 159,157.19922 c 0.30078,0.66015 0.48047,1.80078 0.48047,3 0,0.90234 -0.1211,1.80078 -0.48047,2.69922 -0.0586,0.12109 -0.0586,0.24218 -0.0586,0.30078 0,0.35937 0.17968,0.53906 0.29687,0.60156 0.12109,0.0586 0.48047,-0.0625 0.60156,-0.35937 0,0 0.48047,-1.92188 0.48047,-3.48047 0,-2.51953 -1.01953,-4.85938 -2.28125,-6.83985 -1.01953,-1.62109 -1.85937,-3.30078 -2.16015,-5.22265 -0.0586,-0.35938 -0.23829,-0.47657 -0.41797,-0.47657 -0.24219,0 -0.42188,0.0586 -0.42188,0.29688 v 4.80078 c 1.32031,0.24219 3.24219,2.94141 3.96094,4.67969"
       id="path30"
       inkscape:connector-curvature="0" />
    <path
       style="fill:#000000;fill-opacity:1;fill-rule:nonzero;stroke:none"
       d="m 149.10156,165.89844 c 0,1.20312 0.95703,1.86328 2.16016,1.86328 1.97656,0 4.3789,-1.80078 4.3789,-3.72266 0,-1.14062 -0.90234,-1.85937 -2.16015,-1.85937 -2.46094,0 -4.37891,1.80078 -4.37891,3.71875"
       id="path32"
       inkscape:connector-curvature="0" />
    <path
       style="fill:#000000;fill-opacity:1;fill-rule:nonzero;stroke:none"
       d="m 163.67969,163.85937 c 0.30078,0.24219 0.66015,0.35938 1.08203,0.35938 0.23828,0 0.53906,-0.0586 0.77734,-0.17969 0.24219,-0.0586 0.42188,-0.11719 0.72266,-0.30078 h 0.0586 c 0.1211,0 0.1211,0.0625 0.1211,0.18359 0,0.0586 0,0.11719 0,0.23829 -0.0625,0.30078 -1.5,4.26171 -1.86329,5.57812 0,0.24219 0.42188,0.24219 0.54297,0.24219 0.23828,0 0.53907,0 0.71875,-0.17969 0.0586,-0.0625 2.03907,-7.08203 2.03907,-7.08203 0.0625,-0.35938 0.17968,-0.66016 0.17968,-0.77734 0,-0.17969 -0.17968,-0.30079 -0.23828,-0.30079 -0.0586,0 -0.12109,0 -0.24219,0.0586 -0.11718,0.12109 -1.13671,1.32031 -1.79687,1.32031 v -0.17969 c 0,-0.71875 -0.60156,-1.32031 -1.32031,-1.32031 -0.72266,0 -1.32032,0.60156 -1.32032,1.32031 0,0.42188 0.23829,0.78125 0.53907,1.01953"
       id="path34"
       inkscape:connector-curvature="0" />
    <path
       style="fill:#000000;fill-opacity:1;fill-rule:nonzero;stroke:none"
       d="m 177.12109,165.89844 c 0,1.20312 0.95703,1.86328 2.16016,1.86328 1.98047,0 4.4375,-1.80078 4.4375,-3.72266 0,-1.14062 -0.89844,-1.85937 -2.16016,-1.85937 -2.45703,0 -4.4375,1.80078 -4.4375,3.71875"
       id="path36"
       inkscape:connector-curvature="0" />
    <path
       style="fill:#000000;fill-opacity:1;fill-rule:nonzero;stroke:none"
       d="m 188.64062,165.89844 c 0,1.20312 0.96094,1.86328 2.16016,1.86328 1.98047,0 4.37891,-1.80078 4.37891,-3.72266 0,-1.14062 -0.89844,-1.85937 -2.16016,-1.85937 -2.46094,0 -4.37891,1.80078 -4.37891,3.71875"
       id="path38"
       inkscape:connector-curvature="0" />
    <path
       style="fill:#000000;fill-opacity:1;fill-rule:nonzero;stroke:none"
       d="m 200.10156,165.89844 c 0,1.20312 0.95703,1.86328 2.16016,1.86328 1.97656,0 4.3789,-1.80078 4.3789,-3.72266 0,-1.14062 -0.90234,-1.85937 -2.16015,-1.85937 -2.46094,0 -4.37891,1.80078 -4.37891,3.71875"
       id="path40"
       inkscape:connector-curvature="0" />
    <path
       style="fill:#000000;fill-opacity:1;fill-rule:nonzero;stroke:none"
       d="m 211.55859,165.89844 c 0,1.20312 0.96094,1.86328 2.16016,1.86328 1.98047,0 4.44141,-1.80078 4.44141,-3.72266 0,-1.14062 -0.89844,-1.85937 -2.21875,-1.85937 -2.40235,0 -4.38282,1.80078 -4.38282,3.71875"
       id="path42"
       inkscape:connector-curvature="0" />
    <path
       style="fill:#000000;fill-opacity:1;fill-rule:nonzero;stroke:none"
       d="m 223.01953,165.89844 c 0,1.20312 0.96094,1.86328 2.16016,1.86328 1.98047,0 4.4414,-1.80078 4.4414,-3.72266 0,-1.14062 -0.90234,-1.85937 -2.22265,-1.85937 -2.39844,0 -4.37891,1.80078 -4.37891,3.71875"
       id="path44"
       inkscape:connector-curvature="0" />
    <path
       style="fill:#000000;fill-opacity:1;fill-rule:nonzero;stroke:none"
       d="m 234.48047,165.89844 c 0,1.20312 0.96094,1.86328 2.16015,1.86328 1.98047,0 4.4375,-1.80078 4.4375,-3.72266 0,-1.14062 -0.89843,-1.85937 -2.21875,-1.85937 -2.39843,0 -4.3789,1.80078 -4.3789,3.71875"
       id="path46"
       inkscape:connector-curvature="0" />
    <path
       style="fill:#000000;fill-opacity:1;fill-rule:nonzero;stroke:none"
       d="m 193.92187,147.83984 c 1.67969,0 3.0586,-1.01953 3.0586,-2.57812 0,-0.48047 -0.24219,-0.96094 -0.78125,-1.26172 -0.1211,-0.0586 -0.17969,-0.0586 -0.17969,-0.17969 0,-0.0586 0.0586,-0.0586 0.24219,-0.17969 0.83984,-0.30078 1.5,-0.96093 1.5,-1.74218 0,-1.07813 -1.02344,-1.67969 -2.22266,-1.67969 -1.25781,0 -2.27734,0.66016 -2.33984,1.74219 0,0.48047 0.30078,0.83984 0.78125,0.83984 0.48047,0 0.89844,-0.42187 0.89844,-0.96094 0,-0.17968 -0.11719,-0.35937 -0.17969,-0.48047 -0.17969,-0.12109 -0.23828,-0.17968 -0.23828,-0.23828 0,-0.17968 0.23828,-0.30078 0.66015,-0.30078 0.77735,0 1.01953,0.48047 1.01953,0.89844 0,1.08203 -0.66015,1.85937 -1.85937,1.85937 h -0.17969 c -0.30078,0 -0.42187,0.1211 -0.42187,0.30079 0,0.17968 0.12109,0.30078 0.42187,0.30078 h 0.17969 c 0.71875,0 1.07812,0.42187 1.07812,1.08203 0,0.83984 -0.59765,2.09765 -1.80078,2.09765 -0.41797,0 -0.71875,-0.17968 -0.71875,-0.35937 0,-0.12109 0.0586,-0.17969 0.23828,-0.23828 0.24219,-0.1211 0.48047,-0.36328 0.48047,-0.90235 0,-0.48046 -0.29687,-0.71875 -0.71875,-0.71875 -0.60156,0 -1.01953,0.53907 -1.01953,1.19922 0,0.78125 0.66016,1.5 2.10156,1.5"
       id="path50"
       inkscape:connector-curvature="0" />
    <path
       style="fill:#000000;fill-opacity:1;fill-rule:nonzero;stroke:none"
       d="m 228.30078,147.83984 c 1.67969,0 3.12109,-1.01953 3.12109,-2.57812 0,-0.48047 -0.30078,-0.96094 -0.78125,-1.26172 -0.17968,-0.0586 -0.24218,-0.0586 -0.24218,-0.17969 0,-0.0586 0.0625,-0.0586 0.24218,-0.17969 0.83985,-0.30078 1.5,-0.96093 1.5,-1.74218 0,-1.07813 -0.96093,-1.67969 -2.21875,-1.67969 -1.26171,0 -2.28125,0.66016 -2.34375,1.74219 0,0.48047 0.30079,0.83984 0.78125,0.83984 0.48047,0 0.90235,-0.42187 0.90235,-0.96094 0,-0.17968 -0.0625,-0.35937 -0.1836,-0.48047 -0.11718,-0.12109 -0.23828,-0.17968 -0.23828,-0.23828 0,-0.17968 0.23828,-0.30078 0.66016,-0.30078 0.78125,0 1.01953,0.48047 1.01953,0.89844 0,1.08203 -0.66016,1.85937 -1.80078,1.85937 h -0.23828 c -0.24219,0 -0.42188,0.1211 -0.42188,0.30079 0,0.17968 0.17969,0.30078 0.42188,0.30078 h 0.17969 c 0.78125,0 1.14062,0.42187 1.14062,1.08203 0,0.83984 -0.66016,2.09765 -1.85937,2.09765 -0.42188,0 -0.72266,-0.17968 -0.72266,-0.35937 0,-0.12109 0.12109,-0.17969 0.24219,-0.23828 0.23828,-0.1211 0.53906,-0.36328 0.53906,-0.90235 0,-0.48046 -0.35938,-0.71875 -0.78125,-0.71875 -0.53906,0 -0.95703,0.53907 -0.95703,1.19922 0,0.78125 0.59765,1.5 2.03906,1.5"
       id="path52"
       inkscape:connector-curvature="0" />
    <path
       style="fill:#000000;fill-opacity:1;fill-rule:nonzero;stroke:none"
       d="m 183.12109,151.32031 h 23.51953 v -2.46094 h -23.51953 z m 0,0"
       id="path60"
       inkscape:connector-curvature="0" />
    <path
       style="fill:#000000;fill-opacity:1;fill-rule:nonzero;stroke:none"
       d="m 217.55859,151.32031 h 23.51953 v -2.46094 h -23.51953 z m 0,0"
       id="path62"
       inkscape:connector-curvature="0" />
  </g>
</svg>
